<svg xmlns="http://www.w3.org/2000/svg" xmlns:xlink="http://www.w3.org/1999/xlink" width="1280" zoomAndPan="magnify" viewBox="0 0 960 675.000002" height="900" preserveAspectRatio="xMidYMid meet" version="1.0"><defs><g/><clipPath id="912743b7b0"><rect x="0" width="457" y="0" height="26"/></clipPath><clipPath id="9eb0fb1fec"><rect x="0" width="346" y="0" height="451"/></clipPath></defs><g transform="matrix(1, 0, 0, 1, 256, 482)"><g clip-path="url(#912743b7b0)"><g fill="#e6d6d3" fill-opacity="1"><g transform="translate(1.367925, 18.22579)"><g><path d="M 15.125 -15.421875 L 9.125 -9.609375 L 16 -1.109375 L 17.40625 -0.671875 L 17.203125 0.5 C 16.617188 0.5 16.113281 0.457031 15.6875 0.375 C 15.257812 0.289062 14.867188 0.125 14.515625 -0.125 C 14.160156 -0.375 13.804688 -0.742188 13.453125 -1.234375 L 7.765625 -8.28125 L 5.515625 -6.109375 L 5.515625 -1.453125 C 5.734375 -1.441406 5.988281 -1.421875 6.28125 -1.390625 C 6.582031 -1.367188 6.867188 -1.34375 7.140625 -1.3125 C 7.410156 -1.28125 7.597656 -1.238281 7.703125 -1.1875 C 7.703125 -0.976562 7.703125 -0.773438 7.703125 -0.578125 C 7.710938 -0.390625 7.71875 -0.195312 7.71875 0 L 1.265625 0 C 1.273438 -0.195312 1.285156 -0.390625 1.296875 -0.578125 C 1.304688 -0.773438 1.3125 -0.976562 1.3125 -1.1875 C 1.425781 -1.238281 1.617188 -1.28125 1.890625 -1.3125 C 2.160156 -1.34375 2.441406 -1.367188 2.734375 -1.390625 C 3.023438 -1.421875 3.28125 -1.441406 3.5 -1.453125 L 3.5 -15.390625 C 2.5625 -15.429688 1.941406 -15.566406 1.640625 -15.796875 C 1.347656 -16.035156 1.238281 -16.390625 1.3125 -16.859375 L 7.671875 -16.859375 C 7.671875 -16.648438 7.664062 -16.445312 7.65625 -16.25 C 7.644531 -16.0625 7.640625 -15.867188 7.640625 -15.671875 C 7.546875 -15.640625 7.367188 -15.601562 7.109375 -15.5625 C 6.847656 -15.53125 6.570312 -15.5 6.28125 -15.46875 C 5.988281 -15.4375 5.734375 -15.410156 5.515625 -15.390625 L 5.515625 -8.15625 L 12.984375 -15.390625 C 12.660156 -15.429688 12.304688 -15.472656 11.921875 -15.515625 C 11.535156 -15.554688 11.25 -15.609375 11.0625 -15.671875 L 11.0625 -16.859375 L 16.90625 -16.859375 L 16.859375 -15.671875 C 16.691406 -15.617188 16.429688 -15.566406 16.078125 -15.515625 C 15.722656 -15.472656 15.40625 -15.441406 15.125 -15.421875 Z M 15.125 -15.421875 "/></g></g></g><g fill="#e6d6d3" fill-opacity="1"><g transform="translate(28.156192, 18.22579)"><g><path d="M 6.21875 0 L 0.25 0 C 0.25 -0.195312 0.253906 -0.390625 0.265625 -0.578125 C 0.273438 -0.773438 0.285156 -0.976562 0.296875 -1.1875 C 0.453125 -1.238281 0.710938 -1.285156 1.078125 -1.328125 C 1.453125 -1.378906 1.796875 -1.414062 2.109375 -1.4375 L 7.46875 -15.515625 C 7.332031 -15.503906 7.195312 -15.5 7.0625 -15.5 C 6.9375 -15.5 6.828125 -15.5 6.734375 -15.5 C 6.722656 -15.5 6.703125 -15.5 6.671875 -15.5 C 6.648438 -15.5 6.628906 -15.5 6.609375 -15.5 C 5.972656 -15.582031 5.625 -15.859375 5.5625 -16.328125 C 5.539062 -16.410156 5.523438 -16.484375 5.515625 -16.546875 C 5.515625 -16.617188 5.519531 -16.695312 5.53125 -16.78125 L 10.21875 -17.0625 L 15.96875 -1.453125 C 16.289062 -1.441406 16.644531 -1.410156 17.03125 -1.359375 C 17.414062 -1.304688 17.691406 -1.25 17.859375 -1.1875 C 17.859375 -0.976562 17.863281 -0.773438 17.875 -0.578125 C 17.882812 -0.390625 17.894531 -0.195312 17.90625 0 L 11.46875 0 C 11.46875 -0.195312 11.472656 -0.390625 11.484375 -0.578125 C 11.492188 -0.773438 11.5 -0.976562 11.5 -1.1875 C 11.613281 -1.238281 11.8125 -1.28125 12.09375 -1.3125 C 12.382812 -1.34375 12.691406 -1.367188 13.015625 -1.390625 C 13.347656 -1.421875 13.613281 -1.441406 13.8125 -1.453125 L 12.40625 -5.234375 L 5.25 -5.234375 L 3.84375 -1.453125 C 4.0625 -1.441406 4.328125 -1.421875 4.640625 -1.390625 C 4.960938 -1.367188 5.269531 -1.34375 5.5625 -1.3125 C 5.863281 -1.28125 6.0625 -1.238281 6.15625 -1.1875 C 6.175781 -0.976562 6.191406 -0.773438 6.203125 -0.578125 C 6.210938 -0.390625 6.21875 -0.195312 6.21875 0 Z M 8.828125 -15.09375 L 8.328125 -13.578125 L 5.78125 -6.671875 L 11.90625 -6.671875 L 9.390625 -13.609375 L 8.875 -15.09375 Z M 8.828125 -15.09375 "/></g></g></g><g fill="#e6d6d3" fill-opacity="1"><g transform="translate(55.120509, 18.22579)"><g><path d="M 8.453125 -7.0625 L 6.34375 -7.09375 L 6.46875 -8.421875 L 8.078125 -8.421875 C 8.128906 -8.421875 8.175781 -8.421875 8.21875 -8.421875 C 8.269531 -8.421875 8.320312 -8.421875 8.375 -8.421875 C 9.363281 -8.421875 10.164062 -8.597656 10.78125 -8.953125 C 11.394531 -9.304688 11.84375 -9.765625 12.125 -10.328125 C 12.40625 -10.898438 12.546875 -11.515625 12.546875 -12.171875 C 12.546875 -12.878906 12.40625 -13.453125 12.125 -13.890625 C 11.851562 -14.328125 11.488281 -14.648438 11.03125 -14.859375 C 10.570312 -15.078125 10.0625 -15.226562 9.5 -15.3125 C 8.9375 -15.40625 8.367188 -15.453125 7.796875 -15.453125 L 5.515625 -15.375 L 5.515625 -1.453125 C 5.734375 -1.441406 5.988281 -1.421875 6.28125 -1.390625 C 6.582031 -1.367188 6.867188 -1.34375 7.140625 -1.3125 C 7.410156 -1.28125 7.597656 -1.238281 7.703125 -1.1875 C 7.703125 -0.976562 7.703125 -0.773438 7.703125 -0.578125 C 7.710938 -0.390625 7.71875 -0.195312 7.71875 0 L 1.265625 0 C 1.273438 -0.195312 1.285156 -0.390625 1.296875 -0.578125 C 1.304688 -0.773438 1.3125 -0.976562 1.3125 -1.1875 C 1.425781 -1.238281 1.617188 -1.28125 1.890625 -1.3125 C 2.160156 -1.34375 2.441406 -1.367188 2.734375 -1.390625 C 3.023438 -1.421875 3.28125 -1.441406 3.5 -1.453125 L 3.5 -15.390625 C 2.5625 -15.429688 1.941406 -15.566406 1.640625 -15.796875 C 1.347656 -16.035156 1.238281 -16.390625 1.3125 -16.859375 L 5.3125 -16.859375 C 5.539062 -16.859375 5.828125 -16.859375 6.171875 -16.859375 C 6.515625 -16.867188 6.859375 -16.878906 7.203125 -16.890625 C 7.546875 -16.898438 7.832031 -16.910156 8.0625 -16.921875 C 8.289062 -16.929688 8.40625 -16.9375 8.40625 -16.9375 C 9.875 -16.9375 11.054688 -16.726562 11.953125 -16.3125 C 12.859375 -15.90625 13.515625 -15.347656 13.921875 -14.640625 C 14.335938 -13.929688 14.546875 -13.132812 14.546875 -12.25 C 14.546875 -11.664062 14.429688 -11.03125 14.203125 -10.34375 C 13.972656 -9.664062 13.578125 -9.050781 13.015625 -8.5 C 12.453125 -7.945312 11.671875 -7.546875 10.671875 -7.296875 C 10.972656 -6.921875 11.328125 -6.46875 11.734375 -5.9375 C 12.148438 -5.414062 12.570312 -4.878906 13 -4.328125 C 13.4375 -3.773438 13.851562 -3.253906 14.25 -2.765625 C 14.644531 -2.273438 14.972656 -1.875 15.234375 -1.5625 C 15.492188 -1.257812 15.640625 -1.09375 15.671875 -1.0625 L 17.109375 -0.625 L 16.90625 0.546875 C 16.050781 0.546875 15.328125 0.425781 14.734375 0.1875 C 14.148438 -0.0507812 13.597656 -0.535156 13.078125 -1.265625 Z M 8.453125 -7.0625 "/></g></g></g><g fill="#e6d6d3" fill-opacity="1"><g transform="translate(80.701649, 18.22579)"><g><path d="M 7.71875 0 L 1.265625 0 C 1.273438 -0.195312 1.285156 -0.390625 1.296875 -0.578125 C 1.304688 -0.773438 1.3125 -0.976562 1.3125 -1.1875 C 1.425781 -1.238281 1.617188 -1.28125 1.890625 -1.3125 C 2.160156 -1.34375 2.441406 -1.367188 2.734375 -1.390625 C 3.023438 -1.421875 3.28125 -1.441406 3.5 -1.453125 L 3.5 -15.390625 C 3.28125 -15.410156 3.023438 -15.429688 2.734375 -15.453125 C 2.441406 -15.484375 2.164062 -15.519531 1.90625 -15.5625 C 1.644531 -15.601562 1.460938 -15.640625 1.359375 -15.671875 C 1.335938 -15.867188 1.320312 -16.0625 1.3125 -16.25 C 1.3125 -16.445312 1.3125 -16.648438 1.3125 -16.859375 L 7.671875 -16.859375 C 7.671875 -16.648438 7.664062 -16.445312 7.65625 -16.25 C 7.644531 -16.0625 7.640625 -15.867188 7.640625 -15.671875 C 7.546875 -15.640625 7.367188 -15.601562 7.109375 -15.5625 C 6.847656 -15.519531 6.570312 -15.484375 6.28125 -15.453125 C 5.988281 -15.429688 5.734375 -15.410156 5.515625 -15.390625 L 5.515625 -1.453125 C 5.734375 -1.441406 5.988281 -1.421875 6.28125 -1.390625 C 6.582031 -1.367188 6.867188 -1.34375 7.140625 -1.3125 C 7.410156 -1.28125 7.597656 -1.238281 7.703125 -1.1875 C 7.703125 -0.976562 7.703125 -0.773438 7.703125 -0.578125 C 7.710938 -0.390625 7.71875 -0.195312 7.71875 0 Z M 7.71875 0 "/></g></g></g><g fill="#e6d6d3" fill-opacity="1"><g transform="translate(98.511841, 18.22579)"><g><path d="M 22.359375 0 L 16 0 C 16 -0.195312 16.003906 -0.390625 16.015625 -0.578125 C 16.023438 -0.773438 16.035156 -0.976562 16.046875 -1.1875 C 16.148438 -1.238281 16.332031 -1.28125 16.59375 -1.3125 C 16.863281 -1.34375 17.148438 -1.367188 17.453125 -1.390625 C 17.753906 -1.421875 18.007812 -1.441406 18.21875 -1.453125 L 17.65625 -13.0625 L 17.65625 -14.28125 L 17.234375 -13.203125 L 12.078125 -1.15625 L 10.921875 -1.15625 L 5.6875 -13.28125 L 5.390625 -14.109375 L 4.78125 -1.453125 C 5 -1.441406 5.257812 -1.421875 5.5625 -1.390625 C 5.863281 -1.367188 6.144531 -1.34375 6.40625 -1.3125 C 6.675781 -1.28125 6.863281 -1.238281 6.96875 -1.1875 C 6.96875 -0.976562 6.972656 -0.773438 6.984375 -0.578125 C 6.992188 -0.390625 7.003906 -0.195312 7.015625 0 L 0.953125 0 C 0.953125 -0.195312 0.957031 -0.390625 0.96875 -0.578125 C 0.976562 -0.773438 0.988281 -0.976562 1 -1.1875 C 1.101562 -1.238281 1.289062 -1.28125 1.5625 -1.3125 C 1.832031 -1.34375 2.117188 -1.367188 2.421875 -1.390625 C 2.722656 -1.421875 2.972656 -1.441406 3.171875 -1.453125 L 3.921875 -15.390625 C 3.722656 -15.410156 3.472656 -15.429688 3.171875 -15.453125 C 2.867188 -15.484375 2.585938 -15.519531 2.328125 -15.5625 C 2.066406 -15.601562 1.878906 -15.640625 1.765625 -15.671875 C 1.765625 -15.867188 1.757812 -16.0625 1.75 -16.25 C 1.738281 -16.445312 1.722656 -16.648438 1.703125 -16.859375 L 6.140625 -16.859375 L 11.46875 -4.453125 L 11.75 -3.640625 L 12 -4.421875 L 17.390625 -16.859375 L 21.6875 -16.859375 C 21.664062 -16.648438 21.648438 -16.445312 21.640625 -16.25 C 21.640625 -16.0625 21.640625 -15.867188 21.640625 -15.671875 C 21.535156 -15.640625 21.347656 -15.601562 21.078125 -15.5625 C 20.804688 -15.519531 20.519531 -15.484375 20.21875 -15.453125 C 19.914062 -15.429688 19.660156 -15.410156 19.453125 -15.390625 L 20.15625 -1.453125 C 20.375 -1.441406 20.628906 -1.421875 20.921875 -1.390625 C 21.210938 -1.367188 21.488281 -1.34375 21.75 -1.3125 C 22.019531 -1.28125 22.207031 -1.238281 22.3125 -1.1875 C 22.3125 -0.976562 22.316406 -0.773438 22.328125 -0.578125 C 22.335938 -0.390625 22.347656 -0.195312 22.359375 0 Z M 22.359375 0 "/></g></g></g><g fill="#e6d6d3" fill-opacity="1"><g transform="translate(130.656782, 18.22579)"><g><path d="M 0.953125 -16.859375 L 7.34375 -16.859375 C 7.332031 -16.648438 7.320312 -16.445312 7.3125 -16.25 C 7.300781 -16.0625 7.296875 -15.867188 7.296875 -15.671875 C 7.191406 -15.640625 7.003906 -15.601562 6.734375 -15.5625 C 6.472656 -15.519531 6.195312 -15.484375 5.90625 -15.453125 C 5.625 -15.429688 5.375 -15.410156 5.15625 -15.390625 L 5.15625 -5.703125 C 5.15625 -4.316406 5.53125 -3.234375 6.28125 -2.453125 C 7.039062 -1.671875 8.175781 -1.28125 9.6875 -1.28125 C 11.164062 -1.28125 12.300781 -1.671875 13.09375 -2.453125 C 13.882812 -3.242188 14.28125 -4.335938 14.28125 -5.734375 L 14.28125 -15.390625 C 14.082031 -15.410156 13.835938 -15.429688 13.546875 -15.453125 C 13.253906 -15.484375 12.976562 -15.519531 12.71875 -15.5625 C 12.457031 -15.601562 12.269531 -15.640625 12.15625 -15.671875 C 12.15625 -15.867188 12.148438 -16.0625 12.140625 -16.25 C 12.128906 -16.445312 12.113281 -16.648438 12.09375 -16.859375 L 18.015625 -16.859375 C 18.015625 -16.648438 18.007812 -16.445312 18 -16.25 C 17.988281 -16.0625 17.984375 -15.867188 17.984375 -15.671875 C 17.878906 -15.640625 17.695312 -15.601562 17.4375 -15.5625 C 17.1875 -15.519531 16.910156 -15.484375 16.609375 -15.453125 C 16.316406 -15.429688 16.0625 -15.410156 15.84375 -15.390625 L 15.84375 -5.703125 C 15.84375 -3.878906 15.289062 -2.4375 14.1875 -1.375 C 13.09375 -0.3125 11.578125 0.21875 9.640625 0.21875 C 7.640625 0.21875 6.054688 -0.265625 4.890625 -1.234375 C 3.722656 -2.203125 3.140625 -3.6875 3.140625 -5.6875 L 3.140625 -15.390625 C 2.941406 -15.410156 2.691406 -15.429688 2.390625 -15.453125 C 2.085938 -15.484375 1.8125 -15.519531 1.5625 -15.5625 C 1.3125 -15.601562 1.125 -15.640625 1 -15.671875 C 1 -15.867188 0.992188 -16.0625 0.984375 -16.25 C 0.984375 -16.445312 0.972656 -16.648438 0.953125 -16.859375 Z M 0.953125 -16.859375 "/></g></g></g><g fill="#e6d6d3" fill-opacity="1"><g transform="translate(158.199516, 18.22579)"><g><path d="M 17.125 -15.390625 L 17.125 0 C 16.90625 0.0195312 16.664062 0.0390625 16.40625 0.0625 C 16.15625 0.0820312 15.921875 0.113281 15.703125 0.15625 L 5.03125 -14.1875 L 5.03125 -1.453125 C 5.25 -1.441406 5.507812 -1.421875 5.8125 -1.390625 C 6.113281 -1.367188 6.394531 -1.34375 6.65625 -1.3125 C 6.925781 -1.28125 7.113281 -1.238281 7.21875 -1.1875 C 7.21875 -0.976562 7.222656 -0.773438 7.234375 -0.578125 C 7.242188 -0.390625 7.25 -0.195312 7.25 0 L 1.265625 0 C 1.273438 -0.195312 1.285156 -0.390625 1.296875 -0.578125 C 1.304688 -0.773438 1.3125 -0.976562 1.3125 -1.1875 C 1.425781 -1.238281 1.617188 -1.28125 1.890625 -1.3125 C 2.160156 -1.34375 2.441406 -1.367188 2.734375 -1.390625 C 3.023438 -1.421875 3.28125 -1.441406 3.5 -1.453125 L 3.5 -15.390625 C 3.28125 -15.410156 3.023438 -15.429688 2.734375 -15.453125 C 2.441406 -15.484375 2.164062 -15.519531 1.90625 -15.5625 C 1.644531 -15.601562 1.460938 -15.640625 1.359375 -15.671875 C 1.335938 -15.867188 1.320312 -16.0625 1.3125 -16.25 C 1.3125 -16.445312 1.3125 -16.648438 1.3125 -16.859375 L 5.359375 -16.859375 L 15.546875 -3.171875 L 15.59375 -15.390625 C 15.394531 -15.410156 15.144531 -15.429688 14.84375 -15.453125 C 14.539062 -15.484375 14.257812 -15.519531 14 -15.5625 C 13.738281 -15.601562 13.554688 -15.640625 13.453125 -15.671875 C 13.441406 -15.867188 13.429688 -16.0625 13.421875 -16.25 C 13.410156 -16.445312 13.40625 -16.648438 13.40625 -16.859375 L 19.296875 -16.859375 C 19.296875 -16.648438 19.289062 -16.445312 19.28125 -16.25 C 19.269531 -16.0625 19.257812 -15.867188 19.25 -15.671875 C 19.144531 -15.640625 18.960938 -15.601562 18.703125 -15.5625 C 18.441406 -15.519531 18.164062 -15.484375 17.875 -15.453125 C 17.59375 -15.429688 17.34375 -15.410156 17.125 -15.390625 Z M 17.125 -15.390625 "/></g></g></g><g fill="#e6d6d3" fill-opacity="1"><g transform="translate(187.578105, 18.22579)"><g><path d="M 5.515625 -15.390625 L 5.515625 -2.734375 C 5.515625 -1.660156 5.40625 -0.78125 5.1875 -0.09375 C 4.96875 0.59375 4.644531 1.128906 4.21875 1.515625 C 3.789062 1.910156 3.253906 2.222656 2.609375 2.453125 C 1.960938 2.679688 1.21875 2.878906 0.375 3.046875 L 0.09375 1.90625 L 2.4375 0.65625 C 2.8125 0.320312 3.082031 -0.160156 3.25 -0.796875 C 3.414062 -1.441406 3.5 -2.328125 3.5 -3.453125 L 3.5 -15.390625 C 3.28125 -15.410156 3.023438 -15.429688 2.734375 -15.453125 C 2.441406 -15.484375 2.164062 -15.519531 1.90625 -15.5625 C 1.644531 -15.601562 1.460938 -15.640625 1.359375 -15.671875 C 1.335938 -15.867188 1.320312 -16.0625 1.3125 -16.25 C 1.3125 -16.445312 1.3125 -16.648438 1.3125 -16.859375 L 7.671875 -16.859375 C 7.671875 -16.648438 7.664062 -16.445312 7.65625 -16.25 C 7.644531 -16.0625 7.640625 -15.867188 7.640625 -15.671875 C 7.546875 -15.640625 7.367188 -15.601562 7.109375 -15.5625 C 6.847656 -15.519531 6.570312 -15.484375 6.28125 -15.453125 C 5.988281 -15.429688 5.734375 -15.410156 5.515625 -15.390625 Z M 5.515625 -15.390625 "/></g></g></g><g fill="#e6d6d3" fill-opacity="1"><g transform="translate(204.885326, 18.22579)"><g><path d="M 6.21875 0 L 0.25 0 C 0.25 -0.195312 0.253906 -0.390625 0.265625 -0.578125 C 0.273438 -0.773438 0.285156 -0.976562 0.296875 -1.1875 C 0.453125 -1.238281 0.710938 -1.285156 1.078125 -1.328125 C 1.453125 -1.378906 1.796875 -1.414062 2.109375 -1.4375 L 7.46875 -15.515625 C 7.332031 -15.503906 7.195312 -15.5 7.0625 -15.5 C 6.9375 -15.5 6.828125 -15.5 6.734375 -15.5 C 6.722656 -15.5 6.703125 -15.5 6.671875 -15.5 C 6.648438 -15.5 6.628906 -15.5 6.609375 -15.5 C 5.972656 -15.582031 5.625 -15.859375 5.5625 -16.328125 C 5.539062 -16.410156 5.523438 -16.484375 5.515625 -16.546875 C 5.515625 -16.617188 5.519531 -16.695312 5.53125 -16.78125 L 10.21875 -17.0625 L 15.96875 -1.453125 C 16.289062 -1.441406 16.644531 -1.410156 17.03125 -1.359375 C 17.414062 -1.304688 17.691406 -1.25 17.859375 -1.1875 C 17.859375 -0.976562 17.863281 -0.773438 17.875 -0.578125 C 17.882812 -0.390625 17.894531 -0.195312 17.90625 0 L 11.46875 0 C 11.46875 -0.195312 11.472656 -0.390625 11.484375 -0.578125 C 11.492188 -0.773438 11.5 -0.976562 11.5 -1.1875 C 11.613281 -1.238281 11.8125 -1.28125 12.09375 -1.3125 C 12.382812 -1.34375 12.691406 -1.367188 13.015625 -1.390625 C 13.347656 -1.421875 13.613281 -1.441406 13.8125 -1.453125 L 12.40625 -5.234375 L 5.25 -5.234375 L 3.84375 -1.453125 C 4.0625 -1.441406 4.328125 -1.421875 4.640625 -1.390625 C 4.960938 -1.367188 5.269531 -1.34375 5.5625 -1.3125 C 5.863281 -1.28125 6.0625 -1.238281 6.15625 -1.1875 C 6.175781 -0.976562 6.191406 -0.773438 6.203125 -0.578125 C 6.210938 -0.390625 6.21875 -0.195312 6.21875 0 Z M 8.828125 -15.09375 L 8.328125 -13.578125 L 5.78125 -6.671875 L 11.90625 -6.671875 L 9.390625 -13.609375 L 8.875 -15.09375 Z M 8.828125 -15.09375 "/></g></g></g><g fill="#e6d6d3" fill-opacity="1"><g transform="translate(231.849643, 18.22579)"><g><path d="M 20.125 -15.671875 L 20.09375 -16.859375 L 26.0625 -16.859375 L 26.015625 -15.671875 C 25.847656 -15.609375 25.566406 -15.554688 25.171875 -15.515625 C 24.773438 -15.472656 24.414062 -15.429688 24.09375 -15.390625 L 19.5 0.078125 L 17.828125 0.171875 L 13.484375 -12.375 L 13.25 -13.1875 L 12.984375 -12.328125 L 8.65625 0.078125 L 7.09375 0.171875 L 2.34375 -15.390625 C 1.40625 -15.429688 0.785156 -15.566406 0.484375 -15.796875 C 0.191406 -16.035156 0.0820312 -16.390625 0.15625 -16.859375 L 6.84375 -16.859375 L 6.796875 -15.671875 C 6.691406 -15.640625 6.492188 -15.601562 6.203125 -15.5625 C 5.910156 -15.519531 5.601562 -15.484375 5.28125 -15.453125 C 4.96875 -15.429688 4.703125 -15.410156 4.484375 -15.390625 L 8.03125 -3.140625 L 8.203125 -2.421875 L 8.375 -3.140625 L 12.609375 -15.796875 L 14.28125 -15.796875 L 18.484375 -3.296875 L 18.734375 -2.46875 L 18.921875 -3.296875 L 22.4375 -15.390625 C 22.238281 -15.410156 21.972656 -15.429688 21.640625 -15.453125 C 21.316406 -15.484375 21.007812 -15.519531 20.71875 -15.5625 C 20.4375 -15.601562 20.238281 -15.640625 20.125 -15.671875 Z M 20.125 -15.671875 "/></g></g></g><g fill="#e6d6d3" fill-opacity="1"><g transform="translate(267.012431, 18.22579)"><g><path d="M 6.21875 0 L 0.25 0 C 0.25 -0.195312 0.253906 -0.390625 0.265625 -0.578125 C 0.273438 -0.773438 0.285156 -0.976562 0.296875 -1.1875 C 0.453125 -1.238281 0.710938 -1.285156 1.078125 -1.328125 C 1.453125 -1.378906 1.796875 -1.414062 2.109375 -1.4375 L 7.46875 -15.515625 C 7.332031 -15.503906 7.195312 -15.5 7.0625 -15.5 C 6.9375 -15.5 6.828125 -15.5 6.734375 -15.5 C 6.722656 -15.5 6.703125 -15.5 6.671875 -15.5 C 6.648438 -15.5 6.628906 -15.5 6.609375 -15.5 C 5.972656 -15.582031 5.625 -15.859375 5.5625 -16.328125 C 5.539062 -16.410156 5.523438 -16.484375 5.515625 -16.546875 C 5.515625 -16.617188 5.519531 -16.695312 5.53125 -16.78125 L 10.21875 -17.0625 L 15.96875 -1.453125 C 16.289062 -1.441406 16.644531 -1.410156 17.03125 -1.359375 C 17.414062 -1.304688 17.691406 -1.25 17.859375 -1.1875 C 17.859375 -0.976562 17.863281 -0.773438 17.875 -0.578125 C 17.882812 -0.390625 17.894531 -0.195312 17.90625 0 L 11.46875 0 C 11.46875 -0.195312 11.472656 -0.390625 11.484375 -0.578125 C 11.492188 -0.773438 11.5 -0.976562 11.5 -1.1875 C 11.613281 -1.238281 11.8125 -1.28125 12.09375 -1.3125 C 12.382812 -1.34375 12.691406 -1.367188 13.015625 -1.390625 C 13.347656 -1.421875 13.613281 -1.441406 13.8125 -1.453125 L 12.40625 -5.234375 L 5.25 -5.234375 L 3.84375 -1.453125 C 4.0625 -1.441406 4.328125 -1.421875 4.640625 -1.390625 C 4.960938 -1.367188 5.269531 -1.34375 5.5625 -1.3125 C 5.863281 -1.28125 6.0625 -1.238281 6.15625 -1.1875 C 6.175781 -0.976562 6.191406 -0.773438 6.203125 -0.578125 C 6.210938 -0.390625 6.21875 -0.195312 6.21875 0 Z M 8.828125 -15.09375 L 8.328125 -13.578125 L 5.78125 -6.671875 L 11.90625 -6.671875 L 9.390625 -13.609375 L 8.875 -15.09375 Z M 8.828125 -15.09375 "/></g></g></g><g fill="#e6d6d3" fill-opacity="1"><g transform="translate(293.976747, 18.22579)"><g/></g></g><g fill="#e6d6d3" fill-opacity="1"><g transform="translate(308.567908, 18.22579)"><g><path d="M 7.71875 0 L 1.265625 0 C 1.273438 -0.195312 1.285156 -0.390625 1.296875 -0.578125 C 1.304688 -0.773438 1.3125 -0.976562 1.3125 -1.1875 C 1.425781 -1.238281 1.617188 -1.28125 1.890625 -1.3125 C 2.160156 -1.34375 2.441406 -1.367188 2.734375 -1.390625 C 3.023438 -1.421875 3.28125 -1.441406 3.5 -1.453125 L 3.5 -15.390625 C 3.28125 -15.410156 3.023438 -15.429688 2.734375 -15.453125 C 2.441406 -15.484375 2.164062 -15.519531 1.90625 -15.5625 C 1.644531 -15.601562 1.460938 -15.640625 1.359375 -15.671875 C 1.335938 -15.867188 1.320312 -16.0625 1.3125 -16.25 C 1.3125 -16.445312 1.3125 -16.648438 1.3125 -16.859375 L 7.671875 -16.859375 C 7.671875 -16.648438 7.664062 -16.445312 7.65625 -16.25 C 7.644531 -16.0625 7.640625 -15.867188 7.640625 -15.671875 C 7.546875 -15.640625 7.367188 -15.601562 7.109375 -15.5625 C 6.847656 -15.519531 6.570312 -15.484375 6.28125 -15.453125 C 5.988281 -15.429688 5.734375 -15.410156 5.515625 -15.390625 L 5.515625 -1.453125 C 5.734375 -1.441406 5.988281 -1.421875 6.28125 -1.390625 C 6.582031 -1.367188 6.867188 -1.34375 7.140625 -1.3125 C 7.410156 -1.28125 7.597656 -1.238281 7.703125 -1.1875 C 7.703125 -0.976562 7.703125 -0.773438 7.703125 -0.578125 C 7.710938 -0.390625 7.71875 -0.195312 7.71875 0 Z M 7.71875 0 "/></g></g></g><g fill="#e6d6d3" fill-opacity="1"><g transform="translate(326.3781, 18.22579)"><g><path d="M 6.390625 0.21875 C 5.546875 0.21875 4.769531 0.117188 4.0625 -0.078125 C 3.351562 -0.273438 2.738281 -0.535156 2.21875 -0.859375 C 1.707031 -1.191406 1.335938 -1.523438 1.109375 -1.859375 L 1.609375 -4.984375 C 1.671875 -4.992188 1.726562 -5 1.78125 -5 C 1.832031 -5 1.882812 -5 1.9375 -5 C 2.34375 -5 2.628906 -4.847656 2.796875 -4.546875 C 2.960938 -4.242188 3.046875 -3.8125 3.046875 -3.25 C 3.046875 -3.125 3.039062 -2.988281 3.03125 -2.84375 C 3.019531 -2.707031 3.007812 -2.554688 3 -2.390625 C 3.28125 -2.109375 3.703125 -1.84375 4.265625 -1.59375 C 4.828125 -1.351562 5.492188 -1.234375 6.265625 -1.234375 C 6.835938 -1.234375 7.40625 -1.332031 7.96875 -1.53125 C 8.539062 -1.738281 9.023438 -2.054688 9.421875 -2.484375 C 9.816406 -2.910156 10.015625 -3.46875 10.015625 -4.15625 C 10.015625 -4.820312 9.816406 -5.378906 9.421875 -5.828125 C 9.023438 -6.285156 8.507812 -6.691406 7.875 -7.046875 C 7.25 -7.398438 6.582031 -7.738281 5.875 -8.0625 C 5.175781 -8.382812 4.507812 -8.75 3.875 -9.15625 C 3.25 -9.5625 2.738281 -10.046875 2.34375 -10.609375 C 1.957031 -11.171875 1.765625 -11.851562 1.765625 -12.65625 C 1.765625 -13.570312 2 -14.359375 2.46875 -15.015625 C 2.945312 -15.671875 3.59375 -16.175781 4.40625 -16.53125 C 5.226562 -16.894531 6.132812 -17.078125 7.125 -17.078125 C 8.113281 -17.078125 8.972656 -16.929688 9.703125 -16.640625 C 10.441406 -16.347656 11.023438 -16.007812 11.453125 -15.625 L 11.0625 -12.625 C 11.03125 -12.625 11 -12.625 10.96875 -12.625 C 10.9375 -12.625 10.90625 -12.625 10.875 -12.625 C 10.300781 -12.625 9.941406 -12.816406 9.796875 -13.203125 C 9.648438 -13.585938 9.585938 -14.132812 9.609375 -14.84375 C 8.941406 -15.363281 8.09375 -15.625 7.0625 -15.625 C 6.476562 -15.625 5.929688 -15.519531 5.421875 -15.3125 C 4.921875 -15.113281 4.515625 -14.820312 4.203125 -14.4375 C 3.898438 -14.050781 3.75 -13.582031 3.75 -13.03125 C 3.75 -12.40625 3.945312 -11.867188 4.34375 -11.421875 C 4.75 -10.984375 5.257812 -10.585938 5.875 -10.234375 C 6.5 -9.878906 7.164062 -9.53125 7.875 -9.1875 C 8.59375 -8.84375 9.257812 -8.460938 9.875 -8.046875 C 10.5 -7.628906 11.015625 -7.128906 11.421875 -6.546875 C 11.828125 -5.972656 12.03125 -5.265625 12.03125 -4.421875 C 12.03125 -3.503906 11.785156 -2.691406 11.296875 -1.984375 C 10.804688 -1.285156 10.140625 -0.742188 9.296875 -0.359375 C 8.453125 0.0234375 7.484375 0.21875 6.390625 0.21875 Z M 6.390625 0.21875 "/></g></g></g><g fill="#e6d6d3" fill-opacity="1"><g transform="translate(348.589336, 18.22579)"><g><path d="M 13.25 -3.796875 L 13.25 0.078125 L 10.15625 0 L 1.265625 0 C 1.273438 -0.195312 1.285156 -0.390625 1.296875 -0.578125 C 1.304688 -0.773438 1.3125 -0.976562 1.3125 -1.1875 C 1.425781 -1.238281 1.617188 -1.28125 1.890625 -1.3125 C 2.160156 -1.34375 2.441406 -1.367188 2.734375 -1.390625 C 3.023438 -1.421875 3.28125 -1.441406 3.5 -1.453125 L 3.5 -15.390625 C 2.5625 -15.429688 1.945312 -15.566406 1.65625 -15.796875 C 1.375 -16.035156 1.257812 -16.390625 1.3125 -16.859375 L 7.671875 -16.859375 C 7.671875 -16.648438 7.664062 -16.445312 7.65625 -16.25 C 7.644531 -16.0625 7.640625 -15.867188 7.640625 -15.671875 C 7.546875 -15.640625 7.367188 -15.601562 7.109375 -15.5625 C 6.847656 -15.519531 6.570312 -15.484375 6.28125 -15.453125 C 5.988281 -15.429688 5.734375 -15.410156 5.515625 -15.390625 L 5.515625 -1.453125 L 11.625 -1.453125 C 11.632812 -2.222656 11.703125 -2.8125 11.828125 -3.21875 C 11.960938 -3.632812 12.28125 -3.84375 12.78125 -3.84375 C 12.863281 -3.84375 12.941406 -3.835938 13.015625 -3.828125 C 13.085938 -3.828125 13.164062 -3.816406 13.25 -3.796875 Z M 13.25 -3.796875 "/></g></g></g><g fill="#e6d6d3" fill-opacity="1"><g transform="translate(371.554997, 18.22579)"><g><path d="M 6.21875 0 L 0.25 0 C 0.25 -0.195312 0.253906 -0.390625 0.265625 -0.578125 C 0.273438 -0.773438 0.285156 -0.976562 0.296875 -1.1875 C 0.453125 -1.238281 0.710938 -1.285156 1.078125 -1.328125 C 1.453125 -1.378906 1.796875 -1.414062 2.109375 -1.4375 L 7.46875 -15.515625 C 7.332031 -15.503906 7.195312 -15.5 7.0625 -15.5 C 6.9375 -15.5 6.828125 -15.5 6.734375 -15.5 C 6.722656 -15.5 6.703125 -15.5 6.671875 -15.5 C 6.648438 -15.5 6.628906 -15.5 6.609375 -15.5 C 5.972656 -15.582031 5.625 -15.859375 5.5625 -16.328125 C 5.539062 -16.410156 5.523438 -16.484375 5.515625 -16.546875 C 5.515625 -16.617188 5.519531 -16.695312 5.53125 -16.78125 L 10.21875 -17.0625 L 15.96875 -1.453125 C 16.289062 -1.441406 16.644531 -1.410156 17.03125 -1.359375 C 17.414062 -1.304688 17.691406 -1.25 17.859375 -1.1875 C 17.859375 -0.976562 17.863281 -0.773438 17.875 -0.578125 C 17.882812 -0.390625 17.894531 -0.195312 17.90625 0 L 11.46875 0 C 11.46875 -0.195312 11.472656 -0.390625 11.484375 -0.578125 C 11.492188 -0.773438 11.5 -0.976562 11.5 -1.1875 C 11.613281 -1.238281 11.8125 -1.28125 12.09375 -1.3125 C 12.382812 -1.34375 12.691406 -1.367188 13.015625 -1.390625 C 13.347656 -1.421875 13.613281 -1.441406 13.8125 -1.453125 L 12.40625 -5.234375 L 5.25 -5.234375 L 3.84375 -1.453125 C 4.0625 -1.441406 4.328125 -1.421875 4.640625 -1.390625 C 4.960938 -1.367188 5.269531 -1.34375 5.5625 -1.3125 C 5.863281 -1.28125 6.0625 -1.238281 6.15625 -1.1875 C 6.175781 -0.976562 6.191406 -0.773438 6.203125 -0.578125 C 6.210938 -0.390625 6.21875 -0.195312 6.21875 0 Z M 8.828125 -15.09375 L 8.328125 -13.578125 L 5.78125 -6.671875 L 11.90625 -6.671875 L 9.390625 -13.609375 L 8.875 -15.09375 Z M 8.828125 -15.09375 "/></g></g></g><g fill="#e6d6d3" fill-opacity="1"><g transform="translate(398.519292, 18.22579)"><g><path d="M 17.125 -15.390625 L 17.125 0 C 16.90625 0.0195312 16.664062 0.0390625 16.40625 0.0625 C 16.15625 0.0820312 15.921875 0.113281 15.703125 0.15625 L 5.03125 -14.1875 L 5.03125 -1.453125 C 5.25 -1.441406 5.507812 -1.421875 5.8125 -1.390625 C 6.113281 -1.367188 6.394531 -1.34375 6.65625 -1.3125 C 6.925781 -1.28125 7.113281 -1.238281 7.21875 -1.1875 C 7.21875 -0.976562 7.222656 -0.773438 7.234375 -0.578125 C 7.242188 -0.390625 7.25 -0.195312 7.25 0 L 1.265625 0 C 1.273438 -0.195312 1.285156 -0.390625 1.296875 -0.578125 C 1.304688 -0.773438 1.3125 -0.976562 1.3125 -1.1875 C 1.425781 -1.238281 1.617188 -1.28125 1.890625 -1.3125 C 2.160156 -1.34375 2.441406 -1.367188 2.734375 -1.390625 C 3.023438 -1.421875 3.28125 -1.441406 3.5 -1.453125 L 3.5 -15.390625 C 3.28125 -15.410156 3.023438 -15.429688 2.734375 -15.453125 C 2.441406 -15.484375 2.164062 -15.519531 1.90625 -15.5625 C 1.644531 -15.601562 1.460938 -15.640625 1.359375 -15.671875 C 1.335938 -15.867188 1.320312 -16.0625 1.3125 -16.25 C 1.3125 -16.445312 1.3125 -16.648438 1.3125 -16.859375 L 5.359375 -16.859375 L 15.546875 -3.171875 L 15.59375 -15.390625 C 15.394531 -15.410156 15.144531 -15.429688 14.84375 -15.453125 C 14.539062 -15.484375 14.257812 -15.519531 14 -15.5625 C 13.738281 -15.601562 13.554688 -15.640625 13.453125 -15.671875 C 13.441406 -15.867188 13.429688 -16.0625 13.421875 -16.25 C 13.410156 -16.445312 13.40625 -16.648438 13.40625 -16.859375 L 19.296875 -16.859375 C 19.296875 -16.648438 19.289062 -16.445312 19.28125 -16.25 C 19.269531 -16.0625 19.257812 -15.867188 19.25 -15.671875 C 19.144531 -15.640625 18.960938 -15.601562 18.703125 -15.5625 C 18.441406 -15.519531 18.164062 -15.484375 17.875 -15.453125 C 17.59375 -15.429688 17.34375 -15.410156 17.125 -15.390625 Z M 17.125 -15.390625 "/></g></g></g><g fill="#e6d6d3" fill-opacity="1"><g transform="translate(427.897882, 18.22579)"><g><path d="M 4.296875 0 L 1.265625 0 C 1.273438 -0.195312 1.285156 -0.390625 1.296875 -0.578125 C 1.304688 -0.773438 1.3125 -0.976562 1.3125 -1.1875 C 1.425781 -1.238281 1.617188 -1.28125 1.890625 -1.3125 C 2.160156 -1.34375 2.441406 -1.367188 2.734375 -1.390625 C 3.023438 -1.421875 3.28125 -1.441406 3.5 -1.453125 L 3.5 -15.390625 C 2.507812 -15.429688 1.878906 -15.570312 1.609375 -15.8125 C 1.335938 -16.050781 1.238281 -16.398438 1.3125 -16.859375 L 5.109375 -16.859375 C 5.273438 -16.859375 5.535156 -16.859375 5.890625 -16.859375 C 6.242188 -16.867188 6.628906 -16.882812 7.046875 -16.90625 C 7.460938 -16.925781 7.847656 -16.9375 8.203125 -16.9375 C 10.210938 -16.9375 11.914062 -16.570312 13.3125 -15.84375 C 14.71875 -15.125 15.789062 -14.140625 16.53125 -12.890625 C 17.269531 -11.640625 17.640625 -10.21875 17.640625 -8.625 C 17.640625 -5.675781 16.789062 -3.484375 15.09375 -2.046875 C 13.394531 -0.617188 11.070312 0.09375 8.125 0.09375 C 7.757812 0.09375 7.300781 0.0820312 6.75 0.0625 C 6.207031 0.0507812 5.703125 0.0351562 5.234375 0.015625 C 4.765625 0.00390625 4.453125 0 4.296875 0 Z M 5.515625 -15.375 L 5.515625 -1.484375 C 5.898438 -1.460938 6.328125 -1.441406 6.796875 -1.421875 C 7.273438 -1.398438 7.769531 -1.390625 8.28125 -1.390625 C 10.5625 -1.390625 12.34375 -1.976562 13.625 -3.15625 C 14.90625 -4.34375 15.546875 -6.125 15.546875 -8.5 C 15.546875 -10.78125 14.859375 -12.503906 13.484375 -13.671875 C 12.109375 -14.835938 10.25 -15.421875 7.90625 -15.421875 C 7.75 -15.421875 7.523438 -15.414062 7.234375 -15.40625 C 6.941406 -15.394531 6.632812 -15.390625 6.3125 -15.390625 C 6 -15.390625 5.734375 -15.382812 5.515625 -15.375 Z M 5.515625 -15.375 "/></g></g></g></g></g><g transform="matrix(1, 0, 0, 1, 295, 55)"><g clip-path="url(#9eb0fb1fec)"><g fill="#e6d6d3" fill-opacity="1"><g transform="translate(136.139986, 202.760241)"><g><path d="M 203.328125 -148.59375 C 205.910156 -146.945312 206.78125 -144.632812 205.9375 -141.65625 C 205.394531 -140.21875 204.691406 -138.867188 203.828125 -137.609375 C 202.378906 -135.566406 200.664062 -133.75 198.6875 -132.15625 C 189.4375 -124.289062 178.804688 -119.441406 166.796875 -117.609375 C 164.148438 -117.191406 161.507812 -116.726562 158.875 -116.21875 C 157.664062 -115.945312 156.535156 -116.003906 155.484375 -116.390625 C 154.828125 -116.660156 154.5 -117.097656 154.5 -117.703125 C 154.5625 -117.972656 154.660156 -118.234375 154.796875 -118.484375 C 154.929688 -118.742188 155.085938 -118.90625 155.265625 -118.96875 C 156.140625 -119.445312 157.039062 -119.773438 157.96875 -119.953125 C 159.132812 -120.160156 160.320312 -120.367188 161.53125 -120.578125 C 162.394531 -120.640625 163.28125 -120.757812 164.1875 -120.9375 C 170.132812 -122.019531 175.582031 -124.007812 180.53125 -126.90625 C 185.488281 -129.8125 190.082031 -133.410156 194.3125 -137.703125 C 195.582031 -138.898438 196.546875 -140.328125 197.203125 -141.984375 C 197.921875 -143.960938 197.363281 -145.375 195.53125 -146.21875 C 193.132812 -147.082031 190.6875 -147.546875 188.1875 -147.609375 C 185.070312 -147.609375 181.992188 -147.609375 178.953125 -147.609375 C 177.640625 -147.609375 176.320312 -147.609375 175 -147.609375 C 167.125 -147.609375 159.289062 -147.191406 151.5 -146.359375 C 143.707031 -145.535156 135.925781 -144.570312 128.15625 -143.46875 C 115.78125 -141.875 103.453125 -139.953125 91.171875 -137.703125 C 91.234375 -136.046875 91.265625 -134.394531 91.265625 -132.75 C 91.265625 -111.8125 91.265625 -90.910156 91.265625 -70.046875 C 91.265625 -63.171875 91.265625 -56.289062 91.265625 -49.40625 C 91.265625 -42.6875 91.265625 -35.976562 91.265625 -29.28125 C 91.265625 -9.9375 91.265625 9.414062 91.265625 28.78125 C 91.265625 33.914062 91.171875 39.066406 90.984375 44.234375 C 90.984375 46.992188 89.664062 48.148438 87.03125 47.703125 C 85.707031 47.492188 84.941406 46.773438 84.734375 45.546875 C 84.734375 45.003906 84.703125 44.460938 84.640625 43.921875 C 84.429688 41.421875 84.328125 38.882812 84.328125 36.3125 C 84.265625 19.664062 84.234375 2.984375 84.234375 -13.734375 C 84.234375 -54.640625 84.234375 -95.539062 84.234375 -136.4375 C 84.109375 -136.34375 83.972656 -136.296875 83.828125 -136.296875 C 83.429688 -136.242188 83.070312 -136.1875 82.75 -136.125 C 72.957031 -134.195312 63.269531 -131.910156 53.6875 -129.265625 C 44.113281 -126.628906 34.671875 -123.523438 25.359375 -119.953125 C 22.054688 -118.722656 18.785156 -117.34375 15.546875 -115.8125 C 14.546875 -115.351562 13.597656 -114.914062 12.703125 -114.5 C 10.898438 -113.84375 9.472656 -112.65625 8.421875 -110.9375 C 7.703125 -109.882812 6.613281 -109.34375 5.15625 -109.3125 C 3.695312 -109.289062 2.414062 -109.695312 1.3125 -110.53125 C 0.4375 -111.34375 0.328125 -112.21875 0.984375 -113.15625 C 1.710938 -114.144531 2.585938 -114.984375 3.609375 -115.671875 C 4.628906 -116.359375 5.707031 -117.003906 6.84375 -117.609375 C 12.519531 -120.492188 18.300781 -123 24.1875 -125.125 C 39.175781 -130.59375 54.429688 -135.023438 69.953125 -138.421875 C 74.722656 -139.410156 79.484375 -140.359375 84.234375 -141.265625 C 84.296875 -142.253906 84.351562 -143.210938 84.40625 -144.140625 C 84.625 -145.398438 85.242188 -146.273438 86.265625 -146.765625 C 87.285156 -147.265625 88.425781 -147.21875 89.6875 -146.625 C 90.613281 -146.113281 91.046875 -145.316406 90.984375 -144.234375 C 90.984375 -143.660156 91.015625 -143.070312 91.078125 -142.46875 C 102.492188 -144.457031 113.953125 -146.242188 125.453125 -147.828125 C 137.398438 -149.546875 149.394531 -150.867188 161.4375 -151.796875 C 170.800781 -152.460938 180.1875 -152.550781 189.59375 -152.0625 C 192.625 -151.882812 195.625 -151.421875 198.59375 -150.671875 C 200.3125 -150.285156 201.890625 -149.59375 203.328125 -148.59375 Z M 203.328125 -148.59375 "/></g></g></g><g fill="#e6d6d3" fill-opacity="1"><g transform="translate(246.030298, 202.760241)"><g><path d="M 44.140625 -21.859375 C 46.691406 -24.703125 48.035156 -25.789062 48.171875 -25.125 C 48.304688 -24.46875 47.757812 -22.929688 46.53125 -20.515625 C 45.300781 -18.097656 43.394531 -16.035156 40.8125 -14.328125 C 38.914062 -13.148438 37.285156 -12.359375 35.921875 -11.953125 C 34.554688 -11.546875 33.316406 -11.316406 32.203125 -11.265625 C 30.015625 -11.140625 28.34375 -11.765625 27.1875 -13.140625 C 26.03125 -14.523438 25.222656 -16.304688 24.765625 -18.484375 C 24.316406 -20.660156 23.988281 -22.90625 23.78125 -25.21875 C 23.570312 -26.695312 23.378906 -28.019531 23.203125 -29.1875 C 22.929688 -31.050781 22.394531 -32.078125 21.59375 -32.265625 C 20.800781 -32.460938 19.578125 -31.269531 17.921875 -28.6875 C 16.210938 -25.925781 14.710938 -22.878906 13.421875 -19.546875 C 12.128906 -16.210938 10.988281 -12.957031 10 -9.78125 C 9.9375 -9.65625 9.875 -9.488281 9.8125 -9.28125 C 9.601562 -8.832031 9.441406 -8.363281 9.328125 -7.875 C 8.929688 -6.5625 8.460938 -5.273438 7.921875 -4.015625 C 7.472656 -2.960938 6.703125 -2.269531 5.609375 -1.9375 C 4.515625 -1.601562 3.363281 -1.675781 2.15625 -2.15625 C 1.375 -2.488281 0.847656 -3.046875 0.578125 -3.828125 C 0.191406 -5.023438 0.0625 -6.242188 0.1875 -7.484375 C 0.1875 -7.628906 0.1875 -7.734375 0.1875 -7.796875 C 0.445312 -13.015625 0.488281 -21.707031 0.3125 -33.875 C 0.164062 -43.570312 0.09375 -54.003906 0.09375 -65.171875 C 0.09375 -76.347656 0.375 -86.890625 0.9375 -96.796875 C 1.507812 -106.703125 2.488281 -114.628906 3.875 -120.578125 C 4.476562 -122.742188 5.46875 -124.6875 6.84375 -126.40625 C 8.226562 -128.132812 9.757812 -129.082031 11.4375 -129.25 C 13.125 -129.414062 14.703125 -128.269531 16.171875 -125.8125 C 17.160156 -123.707031 17.773438 -121.46875 18.015625 -119.09375 C 18.679688 -112.070312 18.085938 -101.273438 16.234375 -86.703125 C 14.390625 -72.140625 12.460938 -59.394531 10.453125 -48.46875 C 8.441406 -37.539062 7.4375 -28.410156 7.4375 -21.078125 C 8.09375 -22.191406 8.753906 -23.378906 9.421875 -24.640625 C 10.347656 -26.503906 11.390625 -28.359375 12.546875 -30.203125 C 13.703125 -32.046875 15.066406 -33.613281 16.640625 -34.90625 C 18.222656 -36.195312 20.140625 -37.007812 22.390625 -37.34375 C 23.921875 -37.582031 25.472656 -37.472656 27.046875 -37.015625 C 28.617188 -36.566406 29.675781 -35.472656 30.21875 -33.734375 C 30.882812 -30.703125 31.113281 -27.472656 30.90625 -24.046875 C 30.90625 -20.421875 31.535156 -18.125 32.796875 -17.15625 C 34.054688 -16.195312 35.625 -16.03125 37.5 -16.65625 C 39.375 -17.289062 41.585938 -19.023438 44.140625 -21.859375 Z M 10.5 -115 C 10.164062 -111.238281 9.785156 -104.96875 9.359375 -96.1875 C 8.941406 -87.40625 8.582031 -78.597656 8.28125 -69.765625 C 7.988281 -60.941406 7.84375 -53.601562 7.84375 -47.75 C 8.5625 -53.03125 9.429688 -59.910156 10.453125 -68.390625 C 11.472656 -76.878906 12.378906 -85.613281 13.171875 -94.59375 C 13.972656 -103.570312 14.375 -110.3125 14.375 -114.8125 C 14.3125 -117.1875 14.144531 -118.953125 13.875 -120.109375 C 13.601562 -121.265625 13.148438 -121.675781 12.515625 -121.34375 C 11.890625 -121.019531 11.410156 -120.179688 11.078125 -118.828125 C 10.742188 -117.472656 10.550781 -116.195312 10.5 -115 Z M 10.5 -115 "/></g></g></g><g fill="#e6d6d3" fill-opacity="1"><g transform="translate(291.742865, 202.760241)"><g><path d="M 43.421875 -21.75 C 44.078125 -22.144531 44.722656 -22.445312 45.359375 -22.65625 C 45.992188 -22.863281 46.40625 -22.847656 46.59375 -22.609375 C 46.789062 -22.367188 46.53125 -21.828125 45.8125 -20.984375 C 43.5625 -18.398438 40.863281 -16.035156 37.71875 -13.890625 C 34.582031 -11.742188 31.363281 -9.9375 28.0625 -8.46875 C 25.476562 -7.300781 22.75 -6.367188 19.875 -5.671875 C 17.007812 -4.984375 14.171875 -4.832031 11.359375 -5.21875 C 8.554688 -5.613281 6 -6.863281 3.6875 -8.96875 C 0.175781 -12.207031 -1.273438 -16.171875 -0.671875 -20.859375 C -0.160156 -24.578125 1.285156 -27.734375 3.671875 -30.328125 C 6.054688 -32.929688 9.066406 -34.695312 12.703125 -35.625 C 15.734375 -36.289062 18.765625 -36.367188 21.796875 -35.859375 C 23.179688 -35.648438 24.441406 -35.179688 25.578125 -34.453125 C 26.628906 -33.648438 27.207031 -32.707031 27.3125 -31.625 C 27.425781 -30.539062 27.015625 -29.503906 26.078125 -28.515625 C 24.160156 -26.804688 21.9375 -25.785156 19.40625 -25.453125 C 16.59375 -24.972656 13.757812 -24.671875 10.90625 -24.546875 C 9.519531 -24.546875 8.546875 -24.257812 7.984375 -23.6875 C 7.429688 -23.125 7.113281 -22.148438 7.03125 -20.765625 C 6.570312 -17.015625 7.769531 -13.953125 10.625 -11.578125 C 12.394531 -10.160156 14.550781 -9.554688 17.09375 -9.765625 C 19.632812 -9.984375 22.328125 -10.671875 25.171875 -11.828125 C 28.023438 -12.984375 30.816406 -14.332031 33.546875 -15.875 C 36.285156 -17.425781 38.75 -18.890625 40.9375 -20.265625 C 41.875 -20.867188 42.703125 -21.363281 43.421875 -21.75 Z M 12.109375 -29.78125 C 12.109375 -29.71875 12.066406 -29.6875 11.984375 -29.6875 C 11.859375 -29.5625 11.695312 -29.414062 11.5 -29.25 C 11.3125 -29.09375 11.132812 -28.929688 10.96875 -28.765625 C 10.800781 -28.597656 10.71875 -28.484375 10.71875 -28.421875 C 10.78125 -28.210938 11.320312 -28.160156 12.34375 -28.265625 C 13.363281 -28.367188 14.488281 -28.546875 15.71875 -28.796875 C 16.945312 -29.054688 17.972656 -29.40625 18.796875 -29.84375 C 19.628906 -30.28125 19.878906 -30.796875 19.546875 -31.390625 C 19.398438 -31.578125 19.210938 -31.738281 18.984375 -31.875 C 18.753906 -32.007812 18.507812 -32.101562 18.25 -32.15625 C 17.039062 -32.15625 15.941406 -31.921875 14.953125 -31.453125 C 13.960938 -30.992188 13.015625 -30.4375 12.109375 -29.78125 Z M 12.109375 -29.78125 "/></g></g></g><g fill="#e6d6d3" fill-opacity="1"><g transform="translate(1.835359, 359.007333)"><g><path d="M 194.90625 -169.234375 C 203.707031 -161.148438 206.320312 -151.40625 202.75 -140 C 202.082031 -138.019531 201.253906 -136.097656 200.265625 -134.234375 C 198.429688 -130.929688 196.335938 -127.828125 193.984375 -124.921875 C 191.628906 -122.023438 189.128906 -119.257812 186.484375 -116.625 C 184.710938 -114.757812 182.640625 -114.128906 180.265625 -114.734375 C 179.609375 -114.785156 179.171875 -115.113281 178.953125 -115.71875 C 178.835938 -116.320312 179.003906 -116.816406 179.453125 -117.203125 C 183.742188 -121.347656 187.515625 -125.941406 190.765625 -130.984375 C 193.078125 -134.347656 194.757812 -137.984375 195.8125 -141.890625 C 198.394531 -152.460938 195.492188 -161.171875 187.109375 -168.015625 C 183.148438 -171.140625 178.722656 -173.332031 173.828125 -174.59375 C 169.203125 -175.820312 164.5625 -176.625 159.90625 -177 C 155.25 -177.375 150.566406 -177.394531 145.859375 -177.0625 C 138.679688 -176.644531 131.554688 -175.8125 124.484375 -174.5625 C 117.410156 -173.320312 110.375 -171.84375 103.375 -170.125 C 94.25 -167.875 85.289062 -165.113281 76.5 -161.84375 C 67.71875 -158.570312 59.195312 -154.679688 50.9375 -150.171875 C 42.957031 -145.878906 35.554688 -140.726562 28.734375 -134.71875 C 22.671875 -129.375 17.6875 -123.128906 13.78125 -115.984375 C 8.769531 -106.492188 9.191406 -97.242188 15.046875 -88.234375 C 18.765625 -82.835938 23.191406 -78.050781 28.328125 -73.875 C 36.316406 -67.269531 44.742188 -61.320312 53.609375 -56.03125 C 61.078125 -51.5625 68.535156 -47.148438 75.984375 -42.796875 C 80.941406 -39.941406 85.867188 -37.054688 90.765625 -34.140625 C 94.273438 -32.097656 97.710938 -29.988281 101.078125 -27.8125 C 104.441406 -25.632812 107.710938 -23.285156 110.890625 -20.765625 C 112.816406 -19.171875 114.9375 -18.78125 117.25 -19.59375 C 125.175781 -21.90625 133.222656 -23.554688 141.390625 -24.546875 C 141.660156 -24.546875 141.929688 -24.578125 142.203125 -24.640625 C 144.066406 -24.972656 145.882812 -24.972656 147.65625 -24.640625 C 148.101562 -24.515625 148.492188 -24.300781 148.828125 -24 C 149.160156 -23.707031 149.328125 -23.257812 149.328125 -22.65625 C 149.328125 -22.050781 149.144531 -21.597656 148.78125 -21.296875 C 148.414062 -21.003906 148.007812 -20.859375 147.5625 -20.859375 C 144.707031 -20.796875 141.925781 -20.5 139.21875 -19.96875 C 136.519531 -19.445312 133.851562 -18.859375 131.21875 -18.203125 C 129.082031 -17.660156 126.992188 -17.191406 124.953125 -16.796875 C 124.679688 -16.742188 124.425781 -16.6875 124.1875 -16.625 C 123.195312 -16.46875 122.21875 -16.222656 121.25 -15.890625 C 120.289062 -15.566406 119.453125 -15.078125 118.734375 -14.421875 C 119.242188 -13.097656 119.960938 -12.015625 120.890625 -11.171875 C 121.285156 -10.691406 121.675781 -10.195312 122.0625 -9.6875 C 123.71875 -7.488281 125.160156 -5.21875 126.390625 -2.875 C 127.617188 -0.539062 128.535156 1.945312 129.140625 4.59375 C 130.578125 11.40625 128.351562 16.660156 122.46875 20.359375 C 120.488281 21.523438 118.421875 22.515625 116.265625 23.328125 C 108.578125 26.097656 100.675781 27.253906 92.5625 26.796875 C 89.382812 26.585938 86.410156 25.789062 83.640625 24.40625 C 79.859375 22.425781 77.375 19.648438 76.1875 16.078125 C 75 12.503906 75.335938 8.8125 77.203125 5 C 78.460938 2.539062 80.113281 0.425781 82.15625 -1.34375 C 84.738281 -3.65625 87.492188 -5.71875 90.421875 -7.53125 C 93.347656 -9.351562 96.375 -11.03125 99.5 -12.5625 C 100.820312 -13.226562 102.113281 -13.890625 103.375 -14.546875 C 104.03125 -14.878906 104.691406 -15.210938 105.359375 -15.546875 C 105.421875 -16.265625 105.300781 -16.816406 105 -17.203125 C 104.695312 -17.597656 104.351562 -17.929688 103.96875 -18.203125 C 103.8125 -18.253906 103.675781 -18.359375 103.5625 -18.515625 C 98.207031 -22.597656 92.617188 -26.320312 86.796875 -29.6875 C 79.742188 -33.851562 72.644531 -37.984375 65.5 -42.078125 C 62.519531 -43.785156 59.546875 -45.539062 56.578125 -47.34375 C 46.273438 -53.289062 36.363281 -59.820312 26.84375 -66.9375 C 20.957031 -71.320312 15.644531 -76.273438 10.90625 -81.796875 C 8.59375 -84.648438 6.640625 -87.726562 5.046875 -91.03125 C 1.679688 -98.09375 1.347656 -105.359375 4.046875 -112.828125 C 5.429688 -116.671875 7.28125 -120.222656 9.59375 -123.484375 C 11.90625 -126.742188 14.457031 -129.832031 17.25 -132.75 C 23.46875 -139.175781 30.332031 -144.65625 37.84375 -149.1875 C 50.332031 -156.875 63.515625 -163.03125 77.390625 -167.65625 C 94.710938 -173.445312 112.414062 -177.578125 130.5 -180.046875 C 136.769531 -180.878906 143.066406 -181.378906 149.390625 -181.546875 C 155.710938 -181.710938 162.007812 -181.300781 168.28125 -180.3125 C 172.039062 -179.800781 175.679688 -179.007812 179.203125 -177.9375 C 182.734375 -176.875 186.117188 -175.351562 189.359375 -173.375 C 191.347656 -172.113281 193.195312 -170.734375 194.90625 -169.234375 Z M 112.15625 -10.453125 C 111.101562 -11.535156 109.890625 -11.703125 108.515625 -10.953125 C 104.992188 -9.390625 101.601562 -7.628906 98.34375 -5.671875 C 95.09375 -3.722656 91.976562 -1.515625 89 0.953125 C 87.414062 2.328125 86.097656 3.929688 85.046875 5.765625 C 83.054688 9.546875 82.832031 13.050781 84.375 16.28125 C 85.925781 19.507812 88.789062 21.5 92.96875 22.25 C 93.957031 22.375 94.84375 22.460938 95.625 22.515625 C 95.894531 22.515625 96.117188 22.515625 96.296875 22.515625 C 102.671875 22.335938 108.453125 21.046875 113.640625 18.640625 C 120.128906 15.878906 122.488281 11.09375 120.71875 4.28125 C 119.96875 1.457031 118.847656 -1.160156 117.359375 -3.578125 C 115.867188 -5.992188 114.132812 -8.285156 112.15625 -10.453125 Z M 112.15625 -10.453125 "/></g></g></g><g fill="#e6d6d3" fill-opacity="1"><g transform="translate(146.674392, 359.007333)"><g><path d="M 43.421875 -21.75 C 44.078125 -22.144531 44.722656 -22.445312 45.359375 -22.65625 C 45.992188 -22.863281 46.40625 -22.847656 46.59375 -22.609375 C 46.789062 -22.367188 46.53125 -21.828125 45.8125 -20.984375 C 43.5625 -18.398438 40.863281 -16.035156 37.71875 -13.890625 C 34.582031 -11.742188 31.363281 -9.9375 28.0625 -8.46875 C 25.476562 -7.300781 22.75 -6.367188 19.875 -5.671875 C 17.007812 -4.984375 14.171875 -4.832031 11.359375 -5.21875 C 8.554688 -5.613281 6 -6.863281 3.6875 -8.96875 C 0.175781 -12.207031 -1.273438 -16.171875 -0.671875 -20.859375 C -0.160156 -24.578125 1.285156 -27.734375 3.671875 -30.328125 C 6.054688 -32.929688 9.066406 -34.695312 12.703125 -35.625 C 15.734375 -36.289062 18.765625 -36.367188 21.796875 -35.859375 C 23.179688 -35.648438 24.441406 -35.179688 25.578125 -34.453125 C 26.628906 -33.648438 27.207031 -32.707031 27.3125 -31.625 C 27.425781 -30.539062 27.015625 -29.503906 26.078125 -28.515625 C 24.160156 -26.804688 21.9375 -25.785156 19.40625 -25.453125 C 16.59375 -24.972656 13.757812 -24.671875 10.90625 -24.546875 C 9.519531 -24.546875 8.546875 -24.257812 7.984375 -23.6875 C 7.429688 -23.125 7.113281 -22.148438 7.03125 -20.765625 C 6.570312 -17.015625 7.769531 -13.953125 10.625 -11.578125 C 12.394531 -10.160156 14.550781 -9.554688 17.09375 -9.765625 C 19.632812 -9.984375 22.328125 -10.671875 25.171875 -11.828125 C 28.023438 -12.984375 30.816406 -14.332031 33.546875 -15.875 C 36.285156 -17.425781 38.75 -18.890625 40.9375 -20.265625 C 41.875 -20.867188 42.703125 -21.363281 43.421875 -21.75 Z M 12.109375 -29.78125 C 12.109375 -29.71875 12.066406 -29.6875 11.984375 -29.6875 C 11.859375 -29.5625 11.695312 -29.414062 11.5 -29.25 C 11.3125 -29.09375 11.132812 -28.929688 10.96875 -28.765625 C 10.800781 -28.597656 10.71875 -28.484375 10.71875 -28.421875 C 10.78125 -28.210938 11.320312 -28.160156 12.34375 -28.265625 C 13.363281 -28.367188 14.488281 -28.546875 15.71875 -28.796875 C 16.945312 -29.054688 17.972656 -29.40625 18.796875 -29.84375 C 19.628906 -30.28125 19.878906 -30.796875 19.546875 -31.390625 C 19.398438 -31.578125 19.210938 -31.738281 18.984375 -31.875 C 18.753906 -32.007812 18.507812 -32.101562 18.25 -32.15625 C 17.039062 -32.15625 15.941406 -31.921875 14.953125 -31.453125 C 13.960938 -30.992188 13.015625 -30.4375 12.109375 -29.78125 Z M 12.109375 -29.78125 "/></g></g></g><g fill="#e6d6d3" fill-opacity="1"><g transform="translate(190.270221, 359.007333)"><g><path d="M 41.796875 -21.984375 C 43.054688 -22.765625 43.890625 -22.988281 44.296875 -22.65625 C 44.703125 -22.320312 44.441406 -21.523438 43.515625 -20.265625 C 40.804688 -17.023438 37.445312 -14 33.4375 -11.1875 C 29.4375 -8.382812 25.453125 -6.367188 21.484375 -5.140625 C 18.929688 -4.203125 16.195312 -3.734375 13.28125 -3.734375 C 11.238281 -3.679688 9.179688 -3.984375 7.109375 -4.640625 C 2.640625 -6.078125 0.101562 -9.140625 -0.5 -13.828125 C -0.820312 -16.410156 -0.65625 -18.992188 0 -21.578125 C 0.78125 -24.222656 2.046875 -26.535156 3.796875 -28.515625 C 5.554688 -30.492188 7.726562 -32.007812 10.3125 -33.0625 C 12.75 -33.988281 15.269531 -34.351562 17.875 -34.15625 C 20.488281 -33.96875 22.625 -33.140625 24.28125 -31.671875 C 24.550781 -31.398438 24.6875 -31.066406 24.6875 -30.671875 C 24.6875 -30.285156 24.609375 -29.894531 24.453125 -29.5 C 24.066406 -28.300781 23.515625 -27.738281 22.796875 -27.8125 C 22.078125 -27.882812 21.21875 -28.175781 20.21875 -28.6875 C 19.5 -29.082031 18.703125 -29.441406 17.828125 -29.765625 C 16.960938 -30.097656 16.082031 -30.175781 15.1875 -30 C 12.601562 -29.601562 10.453125 -28.207031 8.734375 -25.8125 C 7.328125 -23.832031 6.375 -21.625 5.875 -19.1875 C 5.382812 -16.757812 5.570312 -14.582031 6.4375 -12.65625 C 7.488281 -10.675781 9.207031 -9.550781 11.59375 -9.28125 C 13.988281 -9.007812 16.703125 -9.285156 19.734375 -10.109375 C 22.765625 -10.929688 25.796875 -12.070312 28.828125 -13.53125 C 31.859375 -14.988281 34.550781 -16.472656 36.90625 -17.984375 C 39.269531 -19.503906 40.898438 -20.835938 41.796875 -21.984375 Z M 41.796875 -21.984375 "/></g></g></g><g fill="#e6d6d3" fill-opacity="1"><g transform="translate(231.704272, 359.007333)"><g><path d="M 28.734375 -21.578125 C 29.304688 -22.742188 29.695312 -23.28125 29.90625 -23.1875 C 30.113281 -23.101562 30.164062 -22.632812 30.0625 -21.78125 C 29.957031 -20.925781 29.769531 -19.957031 29.5 -18.875 C 29.113281 -17.21875 28.4375 -15.300781 27.46875 -13.125 C 26.507812 -10.945312 25.445312 -8.972656 24.28125 -7.203125 C 22.539062 -4.742188 20.382812 -2.890625 17.8125 -1.640625 C 15.25 -0.398438 12.921875 -0.09375 10.828125 -0.71875 C 8.742188 -1.351562 7.535156 -3.320312 7.203125 -6.625 C 7.140625 -9.382812 7.378906 -12.414062 7.921875 -15.71875 C 8.109375 -17.101562 8.304688 -18.457031 8.515625 -19.78125 C 8.515625 -20.257812 8.394531 -20.625 8.15625 -20.875 C 7.914062 -21.132812 7.597656 -21.234375 7.203125 -21.171875 C 6.929688 -21.171875 6.632812 -21.171875 6.3125 -21.171875 C 4.65625 -20.898438 2.972656 -20.929688 1.265625 -21.265625 C -0.773438 -21.859375 -1.960938 -22.867188 -2.296875 -24.296875 C -2.628906 -25.722656 -2.597656 -27.59375 -2.203125 -29.90625 C -1.992188 -31.5625 -1.378906 -32.800781 -0.359375 -33.625 C 0.660156 -34.445312 1.863281 -34.785156 3.25 -34.640625 C 5.164062 -34.460938 6.09375 -33.726562 6.03125 -32.4375 C 5.976562 -31.144531 5.617188 -29.757812 4.953125 -28.28125 C 4.347656 -27.050781 4.03125 -26.023438 4 -25.203125 C 3.976562 -24.378906 4.6875 -24.085938 6.125 -24.328125 C 6.457031 -24.410156 6.816406 -24.515625 7.203125 -24.640625 C 7.742188 -24.847656 8.359375 -25.035156 9.046875 -25.203125 C 9.742188 -25.367188 10.644531 -25.40625 11.75 -25.3125 C 13.070312 -25.25 13.953125 -24.640625 14.390625 -23.484375 C 14.828125 -22.328125 15.015625 -20.878906 14.953125 -19.140625 C 14.890625 -17.398438 14.722656 -15.628906 14.453125 -13.828125 C 14.128906 -11.578125 13.96875 -9.644531 13.96875 -8.03125 C 13.96875 -6.425781 14.429688 -5.488281 15.359375 -5.21875 C 16.585938 -4.894531 18.425781 -6.015625 20.875 -8.578125 C 23.320312 -11.148438 25.941406 -15.484375 28.734375 -21.578125 Z M 28.734375 -21.578125 "/></g></g></g><g fill="#e6d6d3" fill-opacity="1"><g transform="translate(259.266924, 359.007333)"><g><path d="M 43.421875 -21.75 C 44.078125 -22.144531 44.722656 -22.445312 45.359375 -22.65625 C 45.992188 -22.863281 46.40625 -22.847656 46.59375 -22.609375 C 46.789062 -22.367188 46.53125 -21.828125 45.8125 -20.984375 C 43.5625 -18.398438 40.863281 -16.035156 37.71875 -13.890625 C 34.582031 -11.742188 31.363281 -9.9375 28.0625 -8.46875 C 25.476562 -7.300781 22.75 -6.367188 19.875 -5.671875 C 17.007812 -4.984375 14.171875 -4.832031 11.359375 -5.21875 C 8.554688 -5.613281 6 -6.863281 3.6875 -8.96875 C 0.175781 -12.207031 -1.273438 -16.171875 -0.671875 -20.859375 C -0.160156 -24.578125 1.285156 -27.734375 3.671875 -30.328125 C 6.054688 -32.929688 9.066406 -34.695312 12.703125 -35.625 C 15.734375 -36.289062 18.765625 -36.367188 21.796875 -35.859375 C 23.179688 -35.648438 24.441406 -35.179688 25.578125 -34.453125 C 26.628906 -33.648438 27.207031 -32.707031 27.3125 -31.625 C 27.425781 -30.539062 27.015625 -29.503906 26.078125 -28.515625 C 24.160156 -26.804688 21.9375 -25.785156 19.40625 -25.453125 C 16.59375 -24.972656 13.757812 -24.671875 10.90625 -24.546875 C 9.519531 -24.546875 8.546875 -24.257812 7.984375 -23.6875 C 7.429688 -23.125 7.113281 -22.148438 7.03125 -20.765625 C 6.570312 -17.015625 7.769531 -13.953125 10.625 -11.578125 C 12.394531 -10.160156 14.550781 -9.554688 17.09375 -9.765625 C 19.632812 -9.984375 22.328125 -10.671875 25.171875 -11.828125 C 28.023438 -12.984375 30.816406 -14.332031 33.546875 -15.875 C 36.285156 -17.425781 38.75 -18.890625 40.9375 -20.265625 C 41.875 -20.867188 42.703125 -21.363281 43.421875 -21.75 Z M 12.109375 -29.78125 C 12.109375 -29.71875 12.066406 -29.6875 11.984375 -29.6875 C 11.859375 -29.5625 11.695312 -29.414062 11.5 -29.25 C 11.3125 -29.09375 11.132812 -28.929688 10.96875 -28.765625 C 10.800781 -28.597656 10.71875 -28.484375 10.71875 -28.421875 C 10.78125 -28.210938 11.320312 -28.160156 12.34375 -28.265625 C 13.363281 -28.367188 14.488281 -28.546875 15.71875 -28.796875 C 16.945312 -29.054688 17.972656 -29.40625 18.796875 -29.84375 C 19.628906 -30.28125 19.878906 -30.796875 19.546875 -31.390625 C 19.398438 -31.578125 19.210938 -31.738281 18.984375 -31.875 C 18.753906 -32.007812 18.507812 -32.101562 18.25 -32.15625 C 17.039062 -32.15625 15.941406 -31.921875 14.953125 -31.453125 C 13.960938 -30.992188 13.015625 -30.4375 12.109375 -29.78125 Z M 12.109375 -29.78125 "/></g></g></g><g fill="#e6d6d3" fill-opacity="1"><g transform="translate(302.862753, 359.007333)"><g><path d="M 33.0625 -21.671875 C 34.71875 -23.253906 35.429688 -23.648438 35.203125 -22.859375 C 34.972656 -22.066406 34.0625 -20.625 32.46875 -18.53125 C 30.882812 -16.445312 28.90625 -14.1875 26.53125 -11.75 C 24.15625 -9.320312 21.644531 -7.210938 19 -5.421875 C 16.363281 -3.640625 13.859375 -2.671875 11.484375 -2.515625 C 8.566406 -2.515625 6.226562 -3.378906 4.46875 -5.109375 C 2.71875 -6.835938 1.46875 -9.117188 0.71875 -11.953125 C -0.03125 -14.796875 -0.34375 -17.867188 -0.21875 -21.171875 C -0.0703125 -24.867188 0.0625 -28.5625 0.1875 -32.25 C 0.238281 -34.113281 0.296875 -35.929688 0.359375 -37.703125 C 0.503906 -40.671875 0.609375 -43.644531 0.671875 -46.625 C 0.734375 -47.550781 0.582031 -48.328125 0.21875 -48.953125 C -0.132812 -49.585938 -0.78125 -49.9375 -1.71875 -50 C -2.757812 -50.0625 -4.078125 -50.09375 -5.671875 -50.09375 C -7.054688 -50.09375 -8.242188 -50.09375 -9.234375 -50.09375 C -10.617188 -50.238281 -11.539062 -50.601562 -12 -51.1875 C -12.46875 -51.78125 -12.101562 -52.375 -10.90625 -52.96875 C -10.0625 -53.300781 -9.046875 -53.484375 -7.859375 -53.515625 C -6.671875 -53.546875 -5.507812 -53.53125 -4.375 -53.46875 C -3.644531 -53.40625 -3.015625 -53.375 -2.484375 -53.375 C -0.703125 -53.375 0.378906 -53.648438 0.765625 -54.203125 C 1.148438 -54.765625 1.390625 -55.867188 1.484375 -57.515625 C 1.609375 -59.265625 1.695312 -61.023438 1.75 -62.796875 C 1.8125 -63.722656 1.890625 -64.648438 1.984375 -65.578125 C 1.984375 -66.960938 2.34375 -68.210938 3.0625 -69.328125 C 3.84375 -70.378906 4.832031 -70.78125 6.03125 -70.53125 C 7.082031 -70.269531 7.671875 -69.613281 7.796875 -68.5625 C 7.878906 -66.8125 7.921875 -65.050781 7.921875 -63.28125 C 7.984375 -62.289062 7.984375 -61.300781 7.921875 -60.3125 C 7.921875 -59.257812 7.953125 -58.164062 8.015625 -57.03125 C 7.953125 -55.46875 8.128906 -54.484375 8.546875 -54.078125 C 8.972656 -53.671875 10.015625 -53.46875 11.671875 -53.46875 C 14.367188 -53.46875 17.039062 -53.46875 19.6875 -53.46875 C 20.882812 -53.46875 24.457031 -53.550781 30.40625 -53.71875 C 36.351562 -53.882812 39.554688 -53.398438 40.015625 -52.265625 C 40.484375 -51.140625 36.722656 -50.488281 28.734375 -50.3125 C 23.898438 -50.039062 20.160156 -49.90625 17.515625 -49.90625 C 15.742188 -49.96875 14.15625 -50 12.75 -50 C 10.375 -50 8.90625 -49.582031 8.34375 -48.75 C 7.789062 -47.925781 7.546875 -46.269531 7.609375 -43.78125 C 7.546875 -41.644531 7.441406 -39.0625 7.296875 -36.03125 C 6.910156 -29.820312 6.71875 -23.488281 6.71875 -17.03125 C 6.863281 -12.582031 7.65625 -9.695312 9.09375 -8.375 C 10.539062 -7.050781 12.421875 -6.800781 14.734375 -7.625 C 17.046875 -8.457031 19.546875 -9.929688 22.234375 -12.046875 C 24.921875 -14.160156 27.582031 -16.4375 30.21875 -18.875 C 30.789062 -19.625 31.484375 -20.328125 32.296875 -20.984375 C 32.566406 -21.222656 32.820312 -21.453125 33.0625 -21.671875 Z M 33.0625 -21.671875 "/></g></g></g></g></g></svg>