<svg xmlns="http://www.w3.org/2000/svg" xmlns:xlink="http://www.w3.org/1999/xlink" width="1280" zoomAndPan="magnify" viewBox="0 0 960 675.000002" height="900" preserveAspectRatio="xMidYMid meet" version="1.0"><defs><g/><clipPath id="2bc6e7bf63"><rect x="0" width="463" y="0" height="597"/></clipPath></defs><g fill="#000000" fill-opacity="1"><g transform="translate(157.339469, 561.761503)"><g><path d="M 22.921875 -23.375 L 13.84375 -14.5625 L 24.25 -1.671875 L 26.390625 -1.03125 L 26.09375 0.765625 C 25.195312 0.765625 24.425781 0.695312 23.78125 0.5625 C 23.132812 0.4375 22.539062 0.1875 22 -0.1875 C 21.46875 -0.570312 20.9375 -1.132812 20.40625 -1.875 L 11.78125 -12.546875 L 8.359375 -9.265625 L 8.359375 -2.21875 C 8.679688 -2.1875 9.070312 -2.148438 9.53125 -2.109375 C 9.988281 -2.078125 10.421875 -2.035156 10.828125 -1.984375 C 11.234375 -1.929688 11.515625 -1.867188 11.671875 -1.796875 C 11.671875 -1.484375 11.675781 -1.179688 11.6875 -0.890625 C 11.695312 -0.597656 11.703125 -0.300781 11.703125 0 L 1.90625 0 C 1.925781 -0.300781 1.941406 -0.597656 1.953125 -0.890625 C 1.972656 -1.179688 1.984375 -1.484375 1.984375 -1.796875 C 2.160156 -1.867188 2.453125 -1.929688 2.859375 -1.984375 C 3.265625 -2.035156 3.691406 -2.078125 4.140625 -2.109375 C 4.585938 -2.148438 4.972656 -2.1875 5.296875 -2.21875 L 5.296875 -23.34375 C 3.878906 -23.394531 2.945312 -23.597656 2.5 -23.953125 C 2.050781 -24.304688 1.878906 -24.835938 1.984375 -25.546875 L 11.640625 -25.546875 C 11.640625 -25.242188 11.628906 -24.945312 11.609375 -24.65625 C 11.597656 -24.363281 11.59375 -24.066406 11.59375 -23.765625 C 11.4375 -23.710938 11.160156 -23.660156 10.765625 -23.609375 C 10.378906 -23.554688 9.960938 -23.503906 9.515625 -23.453125 C 9.066406 -23.398438 8.679688 -23.363281 8.359375 -23.34375 L 8.359375 -12.359375 L 19.6875 -23.34375 C 19.195312 -23.394531 18.660156 -23.453125 18.078125 -23.515625 C 17.492188 -23.578125 17.0625 -23.660156 16.78125 -23.765625 L 16.78125 -25.546875 L 25.625 -25.546875 L 25.546875 -23.765625 C 25.296875 -23.679688 24.90625 -23.601562 24.375 -23.53125 C 23.84375 -23.457031 23.359375 -23.40625 22.921875 -23.375 Z M 22.921875 -23.375 "/></g></g></g><g fill="#000000" fill-opacity="1"><g transform="translate(197.956072, 561.761503)"><g><path d="M 9.421875 0 L 0.375 0 C 0.375 -0.300781 0.378906 -0.597656 0.390625 -0.890625 C 0.410156 -1.179688 0.429688 -1.484375 0.453125 -1.796875 C 0.679688 -1.867188 1.078125 -1.941406 1.640625 -2.015625 C 2.203125 -2.097656 2.722656 -2.148438 3.203125 -2.171875 L 11.328125 -23.53125 C 11.117188 -23.507812 10.910156 -23.5 10.703125 -23.5 C 10.503906 -23.5 10.34375 -23.5 10.21875 -23.5 C 10.195312 -23.5 10.164062 -23.5 10.125 -23.5 C 10.082031 -23.5 10.050781 -23.5 10.03125 -23.5 C 9.0625 -23.625 8.523438 -24.039062 8.421875 -24.75 C 8.398438 -24.875 8.382812 -24.988281 8.375 -25.09375 C 8.363281 -25.195312 8.367188 -25.3125 8.390625 -25.4375 L 15.484375 -25.859375 L 24.21875 -2.21875 C 24.695312 -2.1875 25.226562 -2.128906 25.8125 -2.046875 C 26.40625 -1.972656 26.828125 -1.890625 27.078125 -1.796875 C 27.078125 -1.484375 27.082031 -1.179688 27.09375 -0.890625 C 27.113281 -0.597656 27.132812 -0.300781 27.15625 0 L 17.390625 0 C 17.390625 -0.300781 17.394531 -0.597656 17.40625 -0.890625 C 17.425781 -1.179688 17.4375 -1.484375 17.4375 -1.796875 C 17.613281 -1.867188 17.914062 -1.929688 18.34375 -1.984375 C 18.78125 -2.035156 19.242188 -2.078125 19.734375 -2.109375 C 20.234375 -2.148438 20.632812 -2.1875 20.9375 -2.21875 L 18.796875 -7.9375 L 7.96875 -7.9375 L 5.828125 -2.21875 C 6.160156 -2.1875 6.566406 -2.148438 7.046875 -2.109375 C 7.535156 -2.078125 8 -2.035156 8.4375 -1.984375 C 8.882812 -1.929688 9.1875 -1.867188 9.34375 -1.796875 C 9.363281 -1.484375 9.378906 -1.179688 9.390625 -0.890625 C 9.410156 -0.597656 9.421875 -0.300781 9.421875 0 Z M 13.390625 -22.890625 L 12.625 -20.59375 L 8.765625 -10.109375 L 18.046875 -10.109375 L 14.21875 -20.640625 L 13.46875 -22.890625 Z M 13.390625 -22.890625 "/></g></g></g><g fill="#000000" fill-opacity="1"><g transform="translate(238.839624, 561.761503)"><g><path d="M 12.8125 -10.71875 L 9.609375 -10.75 L 9.796875 -12.78125 L 12.25 -12.78125 C 12.320312 -12.78125 12.394531 -12.78125 12.46875 -12.78125 C 12.550781 -12.78125 12.628906 -12.78125 12.703125 -12.78125 C 14.203125 -12.78125 15.414062 -13.046875 16.34375 -13.578125 C 17.269531 -14.109375 17.945312 -14.804688 18.375 -15.671875 C 18.8125 -16.535156 19.03125 -17.460938 19.03125 -18.453125 C 19.03125 -19.523438 18.820312 -20.390625 18.40625 -21.046875 C 17.988281 -21.710938 17.425781 -22.207031 16.71875 -22.53125 C 16.019531 -22.863281 15.242188 -23.09375 14.390625 -23.21875 C 13.546875 -23.351562 12.691406 -23.421875 11.828125 -23.421875 L 8.359375 -23.296875 L 8.359375 -2.21875 C 8.679688 -2.1875 9.070312 -2.148438 9.53125 -2.109375 C 9.988281 -2.078125 10.421875 -2.035156 10.828125 -1.984375 C 11.234375 -1.929688 11.515625 -1.867188 11.671875 -1.796875 C 11.671875 -1.484375 11.675781 -1.179688 11.6875 -0.890625 C 11.695312 -0.597656 11.703125 -0.300781 11.703125 0 L 1.90625 0 C 1.925781 -0.300781 1.941406 -0.597656 1.953125 -0.890625 C 1.972656 -1.179688 1.984375 -1.484375 1.984375 -1.796875 C 2.160156 -1.867188 2.453125 -1.929688 2.859375 -1.984375 C 3.265625 -2.035156 3.691406 -2.078125 4.140625 -2.109375 C 4.585938 -2.148438 4.972656 -2.1875 5.296875 -2.21875 L 5.296875 -23.34375 C 3.878906 -23.394531 2.945312 -23.597656 2.5 -23.953125 C 2.050781 -24.304688 1.878906 -24.835938 1.984375 -25.546875 L 8.046875 -25.546875 C 8.398438 -25.546875 8.835938 -25.550781 9.359375 -25.5625 C 9.878906 -25.582031 10.398438 -25.597656 10.921875 -25.609375 C 11.441406 -25.617188 11.875 -25.628906 12.21875 -25.640625 C 12.5625 -25.660156 12.734375 -25.671875 12.734375 -25.671875 C 14.972656 -25.671875 16.769531 -25.359375 18.125 -24.734375 C 19.488281 -24.109375 20.484375 -23.257812 21.109375 -22.1875 C 21.734375 -21.125 22.046875 -19.921875 22.046875 -18.578125 C 22.046875 -17.679688 21.875 -16.71875 21.53125 -15.6875 C 21.1875 -14.664062 20.585938 -13.734375 19.734375 -12.890625 C 18.878906 -12.054688 17.691406 -11.445312 16.171875 -11.0625 C 16.628906 -10.5 17.171875 -9.816406 17.796875 -9.015625 C 18.421875 -8.210938 19.0625 -7.390625 19.71875 -6.546875 C 20.375 -5.710938 21 -4.925781 21.59375 -4.1875 C 22.195312 -3.457031 22.695312 -2.851562 23.09375 -2.375 C 23.488281 -1.90625 23.710938 -1.648438 23.765625 -1.609375 L 25.9375 -0.953125 L 25.625 0.84375 C 24.332031 0.84375 23.238281 0.65625 22.34375 0.28125 C 21.457031 -0.0820312 20.617188 -0.8125 19.828125 -1.90625 Z M 12.8125 -10.71875 "/></g></g></g><g fill="#000000" fill-opacity="1"><g transform="translate(277.625755, 561.761503)"><g><path d="M 11.703125 0 L 1.90625 0 C 1.925781 -0.300781 1.941406 -0.597656 1.953125 -0.890625 C 1.972656 -1.179688 1.984375 -1.484375 1.984375 -1.796875 C 2.160156 -1.867188 2.453125 -1.929688 2.859375 -1.984375 C 3.265625 -2.035156 3.691406 -2.078125 4.140625 -2.109375 C 4.585938 -2.148438 4.972656 -2.1875 5.296875 -2.21875 L 5.296875 -23.34375 C 4.972656 -23.363281 4.585938 -23.394531 4.140625 -23.4375 C 3.691406 -23.476562 3.269531 -23.53125 2.875 -23.59375 C 2.476562 -23.65625 2.207031 -23.710938 2.0625 -23.765625 C 2.03125 -24.066406 2.007812 -24.363281 2 -24.65625 C 1.988281 -24.945312 1.984375 -25.242188 1.984375 -25.546875 L 11.640625 -25.546875 C 11.640625 -25.242188 11.628906 -24.945312 11.609375 -24.65625 C 11.597656 -24.363281 11.59375 -24.066406 11.59375 -23.765625 C 11.4375 -23.710938 11.160156 -23.65625 10.765625 -23.59375 C 10.378906 -23.53125 9.960938 -23.476562 9.515625 -23.4375 C 9.066406 -23.394531 8.679688 -23.363281 8.359375 -23.34375 L 8.359375 -2.21875 C 8.679688 -2.1875 9.070312 -2.148438 9.53125 -2.109375 C 9.988281 -2.078125 10.421875 -2.035156 10.828125 -1.984375 C 11.234375 -1.929688 11.515625 -1.867188 11.671875 -1.796875 C 11.671875 -1.484375 11.675781 -1.179688 11.6875 -0.890625 C 11.695312 -0.597656 11.703125 -0.300781 11.703125 0 Z M 11.703125 0 "/></g></g></g><g fill="#000000" fill-opacity="1"><g transform="translate(304.628186, 561.761503)"><g><path d="M 33.90625 0 L 24.25 0 C 24.25 -0.300781 24.253906 -0.597656 24.265625 -0.890625 C 24.285156 -1.179688 24.304688 -1.484375 24.328125 -1.796875 C 24.484375 -1.867188 24.765625 -1.929688 25.171875 -1.984375 C 25.578125 -2.035156 26.007812 -2.078125 26.46875 -2.109375 C 26.925781 -2.148438 27.304688 -2.1875 27.609375 -2.21875 L 26.78125 -19.796875 L 26.78125 -21.65625 L 26.125 -20.03125 L 18.3125 -1.75 L 16.546875 -1.75 L 8.625 -20.140625 L 8.15625 -21.390625 L 7.25 -2.21875 C 7.582031 -2.1875 7.972656 -2.148438 8.421875 -2.109375 C 8.878906 -2.078125 9.3125 -2.035156 9.71875 -1.984375 C 10.132812 -1.929688 10.414062 -1.867188 10.5625 -1.796875 C 10.5625 -1.484375 10.566406 -1.179688 10.578125 -0.890625 C 10.597656 -0.597656 10.617188 -0.300781 10.640625 0 L 1.453125 0 C 1.453125 -0.300781 1.457031 -0.597656 1.46875 -0.890625 C 1.476562 -1.179688 1.5 -1.484375 1.53125 -1.796875 C 1.675781 -1.867188 1.953125 -1.929688 2.359375 -1.984375 C 2.765625 -2.035156 3.195312 -2.078125 3.65625 -2.109375 C 4.113281 -2.148438 4.5 -2.1875 4.8125 -2.21875 L 5.953125 -23.34375 C 5.648438 -23.363281 5.269531 -23.394531 4.8125 -23.4375 C 4.351562 -23.476562 3.925781 -23.53125 3.53125 -23.59375 C 3.132812 -23.65625 2.847656 -23.710938 2.671875 -23.765625 C 2.671875 -24.066406 2.660156 -24.363281 2.640625 -24.65625 C 2.628906 -24.945312 2.613281 -25.242188 2.59375 -25.546875 L 9.3125 -25.546875 L 17.390625 -6.75 L 17.8125 -5.53125 L 18.1875 -6.71875 L 26.359375 -25.546875 L 32.875 -25.546875 C 32.851562 -25.242188 32.832031 -24.945312 32.8125 -24.65625 C 32.800781 -24.363281 32.796875 -24.066406 32.796875 -23.765625 C 32.648438 -23.710938 32.367188 -23.65625 31.953125 -23.59375 C 31.546875 -23.53125 31.113281 -23.476562 30.65625 -23.4375 C 30.207031 -23.394531 29.816406 -23.363281 29.484375 -23.34375 L 30.546875 -2.21875 C 30.878906 -2.1875 31.265625 -2.148438 31.703125 -2.109375 C 32.148438 -2.078125 32.578125 -2.035156 32.984375 -1.984375 C 33.398438 -1.929688 33.679688 -1.867188 33.828125 -1.796875 C 33.828125 -1.484375 33.832031 -1.179688 33.84375 -0.890625 C 33.863281 -0.597656 33.882812 -0.300781 33.90625 0 Z M 33.90625 0 "/></g></g></g><g fill="#000000" fill-opacity="1"><g transform="translate(353.367546, 561.761503)"><g><path d="M 1.453125 -25.546875 L 11.140625 -25.546875 C 11.109375 -25.242188 11.085938 -24.945312 11.078125 -24.65625 C 11.066406 -24.363281 11.0625 -24.066406 11.0625 -23.765625 C 10.90625 -23.710938 10.625 -23.65625 10.21875 -23.59375 C 9.8125 -23.53125 9.390625 -23.476562 8.953125 -23.4375 C 8.523438 -23.394531 8.144531 -23.363281 7.8125 -23.34375 L 7.8125 -8.65625 C 7.8125 -6.550781 8.382812 -4.90625 9.53125 -3.71875 C 10.675781 -2.53125 12.394531 -1.9375 14.6875 -1.9375 C 16.925781 -1.9375 18.644531 -2.535156 19.84375 -3.734375 C 21.050781 -4.929688 21.65625 -6.585938 21.65625 -8.703125 L 21.65625 -23.34375 C 21.351562 -23.363281 20.976562 -23.394531 20.53125 -23.4375 C 20.09375 -23.476562 19.675781 -23.53125 19.28125 -23.59375 C 18.882812 -23.65625 18.597656 -23.710938 18.421875 -23.765625 C 18.421875 -24.066406 18.414062 -24.363281 18.40625 -24.65625 C 18.394531 -24.945312 18.375 -25.242188 18.34375 -25.546875 L 27.3125 -25.546875 C 27.3125 -25.242188 27.300781 -24.945312 27.28125 -24.65625 C 27.269531 -24.363281 27.265625 -24.066406 27.265625 -23.765625 C 27.117188 -23.710938 26.847656 -23.65625 26.453125 -23.59375 C 26.054688 -23.53125 25.632812 -23.476562 25.1875 -23.4375 C 24.75 -23.394531 24.363281 -23.363281 24.03125 -23.34375 L 24.03125 -8.65625 C 24.03125 -5.882812 23.195312 -3.691406 21.53125 -2.078125 C 19.863281 -0.460938 17.554688 0.34375 14.609375 0.34375 C 11.578125 0.34375 9.175781 -0.390625 7.40625 -1.859375 C 5.644531 -3.335938 4.765625 -5.59375 4.765625 -8.625 L 4.765625 -23.34375 C 4.460938 -23.363281 4.082031 -23.394531 3.625 -23.4375 C 3.164062 -23.476562 2.742188 -23.53125 2.359375 -23.59375 C 1.984375 -23.65625 1.707031 -23.710938 1.53125 -23.765625 C 1.53125 -24.066406 1.519531 -24.363281 1.5 -24.65625 C 1.488281 -24.945312 1.472656 -25.242188 1.453125 -25.546875 Z M 1.453125 -25.546875 "/></g></g></g><g fill="#000000" fill-opacity="1"><g transform="translate(395.128202, 561.761503)"><g><path d="M 25.96875 -23.34375 L 25.96875 0 C 25.644531 0.0195312 25.285156 0.0507812 24.890625 0.09375 C 24.492188 0.132812 24.128906 0.179688 23.796875 0.234375 L 7.625 -21.515625 L 7.625 -2.21875 C 7.957031 -2.1875 8.351562 -2.148438 8.8125 -2.109375 C 9.269531 -2.078125 9.703125 -2.035156 10.109375 -1.984375 C 10.515625 -1.929688 10.796875 -1.867188 10.953125 -1.796875 C 10.953125 -1.484375 10.957031 -1.179688 10.96875 -0.890625 C 10.976562 -0.597656 10.984375 -0.300781 10.984375 0 L 1.90625 0 C 1.925781 -0.300781 1.941406 -0.597656 1.953125 -0.890625 C 1.972656 -1.179688 1.984375 -1.484375 1.984375 -1.796875 C 2.160156 -1.867188 2.453125 -1.929688 2.859375 -1.984375 C 3.265625 -2.035156 3.691406 -2.078125 4.140625 -2.109375 C 4.585938 -2.148438 4.972656 -2.1875 5.296875 -2.21875 L 5.296875 -23.34375 C 4.972656 -23.363281 4.585938 -23.394531 4.140625 -23.4375 C 3.691406 -23.476562 3.269531 -23.53125 2.875 -23.59375 C 2.476562 -23.65625 2.207031 -23.710938 2.0625 -23.765625 C 2.03125 -24.066406 2.007812 -24.363281 2 -24.65625 C 1.988281 -24.945312 1.984375 -25.242188 1.984375 -25.546875 L 8.125 -25.546875 L 23.578125 -4.8125 L 23.640625 -23.34375 C 23.335938 -23.363281 22.957031 -23.394531 22.5 -23.4375 C 22.039062 -23.476562 21.613281 -23.53125 21.21875 -23.59375 C 20.832031 -23.65625 20.5625 -23.710938 20.40625 -23.765625 C 20.375 -24.066406 20.351562 -24.363281 20.34375 -24.65625 C 20.332031 -24.945312 20.328125 -25.242188 20.328125 -25.546875 L 29.25 -25.546875 C 29.25 -25.242188 29.242188 -24.945312 29.234375 -24.65625 C 29.222656 -24.363281 29.203125 -24.066406 29.171875 -23.765625 C 29.023438 -23.710938 28.753906 -23.65625 28.359375 -23.59375 C 27.960938 -23.53125 27.546875 -23.476562 27.109375 -23.4375 C 26.679688 -23.394531 26.300781 -23.363281 25.96875 -23.34375 Z M 25.96875 -23.34375 "/></g></g></g><g fill="#000000" fill-opacity="1"><g transform="translate(439.672698, 561.761503)"><g><path d="M 8.359375 -23.34375 L 8.359375 -4.15625 C 8.359375 -2.53125 8.191406 -1.195312 7.859375 -0.15625 C 7.523438 0.882812 7.035156 1.703125 6.390625 2.296875 C 5.742188 2.898438 4.929688 3.375 3.953125 3.71875 C 2.972656 4.0625 1.847656 4.359375 0.578125 4.609375 L 0.15625 2.90625 L 3.703125 0.984375 C 4.253906 0.484375 4.65625 -0.25 4.90625 -1.21875 C 5.164062 -2.1875 5.296875 -3.519531 5.296875 -5.21875 L 5.296875 -23.34375 C 4.972656 -23.363281 4.585938 -23.394531 4.140625 -23.4375 C 3.691406 -23.476562 3.269531 -23.53125 2.875 -23.59375 C 2.476562 -23.65625 2.207031 -23.710938 2.0625 -23.765625 C 2.03125 -24.066406 2.007812 -24.363281 2 -24.65625 C 1.988281 -24.945312 1.984375 -25.242188 1.984375 -25.546875 L 11.640625 -25.546875 C 11.640625 -25.242188 11.628906 -24.945312 11.609375 -24.65625 C 11.597656 -24.363281 11.59375 -24.066406 11.59375 -23.765625 C 11.4375 -23.710938 11.160156 -23.65625 10.765625 -23.59375 C 10.378906 -23.53125 9.960938 -23.476562 9.515625 -23.4375 C 9.066406 -23.394531 8.679688 -23.363281 8.359375 -23.34375 Z M 8.359375 -23.34375 "/></g></g></g><g fill="#000000" fill-opacity="1"><g transform="translate(465.912433, 561.761503)"><g><path d="M 9.421875 0 L 0.375 0 C 0.375 -0.300781 0.378906 -0.597656 0.390625 -0.890625 C 0.410156 -1.179688 0.429688 -1.484375 0.453125 -1.796875 C 0.679688 -1.867188 1.078125 -1.941406 1.640625 -2.015625 C 2.203125 -2.097656 2.722656 -2.148438 3.203125 -2.171875 L 11.328125 -23.53125 C 11.117188 -23.507812 10.910156 -23.5 10.703125 -23.5 C 10.503906 -23.5 10.34375 -23.5 10.21875 -23.5 C 10.195312 -23.5 10.164062 -23.5 10.125 -23.5 C 10.082031 -23.5 10.050781 -23.5 10.03125 -23.5 C 9.0625 -23.625 8.523438 -24.039062 8.421875 -24.75 C 8.398438 -24.875 8.382812 -24.988281 8.375 -25.09375 C 8.363281 -25.195312 8.367188 -25.3125 8.390625 -25.4375 L 15.484375 -25.859375 L 24.21875 -2.21875 C 24.695312 -2.1875 25.226562 -2.128906 25.8125 -2.046875 C 26.40625 -1.972656 26.828125 -1.890625 27.078125 -1.796875 C 27.078125 -1.484375 27.082031 -1.179688 27.09375 -0.890625 C 27.113281 -0.597656 27.132812 -0.300781 27.15625 0 L 17.390625 0 C 17.390625 -0.300781 17.394531 -0.597656 17.40625 -0.890625 C 17.425781 -1.179688 17.4375 -1.484375 17.4375 -1.796875 C 17.613281 -1.867188 17.914062 -1.929688 18.34375 -1.984375 C 18.78125 -2.035156 19.242188 -2.078125 19.734375 -2.109375 C 20.234375 -2.148438 20.632812 -2.1875 20.9375 -2.21875 L 18.796875 -7.9375 L 7.96875 -7.9375 L 5.828125 -2.21875 C 6.160156 -2.1875 6.566406 -2.148438 7.046875 -2.109375 C 7.535156 -2.078125 8 -2.035156 8.4375 -1.984375 C 8.882812 -1.929688 9.1875 -1.867188 9.34375 -1.796875 C 9.363281 -1.484375 9.378906 -1.179688 9.390625 -0.890625 C 9.410156 -0.597656 9.421875 -0.300781 9.421875 0 Z M 13.390625 -22.890625 L 12.625 -20.59375 L 8.765625 -10.109375 L 18.046875 -10.109375 L 14.21875 -20.640625 L 13.46875 -22.890625 Z M 13.390625 -22.890625 "/></g></g></g><g fill="#000000" fill-opacity="1"><g transform="translate(506.795986, 561.761503)"><g><path d="M 30.515625 -23.765625 L 30.46875 -25.546875 L 39.515625 -25.546875 L 39.4375 -23.765625 C 39.1875 -23.660156 38.757812 -23.578125 38.15625 -23.515625 C 37.5625 -23.453125 37.019531 -23.394531 36.53125 -23.34375 L 29.5625 0.109375 L 27.046875 0.265625 L 20.4375 -18.765625 L 20.09375 -19.984375 L 19.6875 -18.6875 L 13.125 0.109375 L 10.75 0.265625 L 3.546875 -23.34375 C 2.117188 -23.394531 1.179688 -23.597656 0.734375 -23.953125 C 0.296875 -24.304688 0.128906 -24.835938 0.234375 -25.546875 L 10.375 -25.546875 L 10.296875 -23.765625 C 10.140625 -23.710938 9.835938 -23.65625 9.390625 -23.59375 C 8.953125 -23.53125 8.488281 -23.476562 8 -23.4375 C 7.519531 -23.394531 7.113281 -23.363281 6.78125 -23.34375 L 12.171875 -4.765625 L 12.4375 -3.65625 L 12.703125 -4.765625 L 19.109375 -23.953125 L 21.65625 -23.953125 L 28.03125 -5 L 28.421875 -3.734375 L 28.6875 -5 L 34.015625 -23.34375 C 33.710938 -23.363281 33.3125 -23.394531 32.8125 -23.4375 C 32.320312 -23.476562 31.859375 -23.53125 31.421875 -23.59375 C 30.992188 -23.65625 30.691406 -23.710938 30.515625 -23.765625 Z M 30.515625 -23.765625 "/></g></g></g><g fill="#000000" fill-opacity="1"><g transform="translate(560.111514, 561.761503)"><g><path d="M 9.421875 0 L 0.375 0 C 0.375 -0.300781 0.378906 -0.597656 0.390625 -0.890625 C 0.410156 -1.179688 0.429688 -1.484375 0.453125 -1.796875 C 0.679688 -1.867188 1.078125 -1.941406 1.640625 -2.015625 C 2.203125 -2.097656 2.722656 -2.148438 3.203125 -2.171875 L 11.328125 -23.53125 C 11.117188 -23.507812 10.910156 -23.5 10.703125 -23.5 C 10.503906 -23.5 10.34375 -23.5 10.21875 -23.5 C 10.195312 -23.5 10.164062 -23.5 10.125 -23.5 C 10.082031 -23.5 10.050781 -23.5 10.03125 -23.5 C 9.0625 -23.625 8.523438 -24.039062 8.421875 -24.75 C 8.398438 -24.875 8.382812 -24.988281 8.375 -25.09375 C 8.363281 -25.195312 8.367188 -25.3125 8.390625 -25.4375 L 15.484375 -25.859375 L 24.21875 -2.21875 C 24.695312 -2.1875 25.226562 -2.128906 25.8125 -2.046875 C 26.40625 -1.972656 26.828125 -1.890625 27.078125 -1.796875 C 27.078125 -1.484375 27.082031 -1.179688 27.09375 -0.890625 C 27.113281 -0.597656 27.132812 -0.300781 27.15625 0 L 17.390625 0 C 17.390625 -0.300781 17.394531 -0.597656 17.40625 -0.890625 C 17.425781 -1.179688 17.4375 -1.484375 17.4375 -1.796875 C 17.613281 -1.867188 17.914062 -1.929688 18.34375 -1.984375 C 18.78125 -2.035156 19.242188 -2.078125 19.734375 -2.109375 C 20.234375 -2.148438 20.632812 -2.1875 20.9375 -2.21875 L 18.796875 -7.9375 L 7.96875 -7.9375 L 5.828125 -2.21875 C 6.160156 -2.1875 6.566406 -2.148438 7.046875 -2.109375 C 7.535156 -2.078125 8 -2.035156 8.4375 -1.984375 C 8.882812 -1.929688 9.1875 -1.867188 9.34375 -1.796875 C 9.363281 -1.484375 9.378906 -1.179688 9.390625 -0.890625 C 9.410156 -0.597656 9.421875 -0.300781 9.421875 0 Z M 13.390625 -22.890625 L 12.625 -20.59375 L 8.765625 -10.109375 L 18.046875 -10.109375 L 14.21875 -20.640625 L 13.46875 -22.890625 Z M 13.390625 -22.890625 "/></g></g></g><g fill="#000000" fill-opacity="1"><g transform="translate(600.995066, 561.761503)"><g/></g></g><g fill="#000000" fill-opacity="1"><g transform="translate(623.116224, 561.761503)"><g><path d="M 11.703125 0 L 1.90625 0 C 1.925781 -0.300781 1.941406 -0.597656 1.953125 -0.890625 C 1.972656 -1.179688 1.984375 -1.484375 1.984375 -1.796875 C 2.160156 -1.867188 2.453125 -1.929688 2.859375 -1.984375 C 3.265625 -2.035156 3.691406 -2.078125 4.140625 -2.109375 C 4.585938 -2.148438 4.972656 -2.1875 5.296875 -2.21875 L 5.296875 -23.34375 C 4.972656 -23.363281 4.585938 -23.394531 4.140625 -23.4375 C 3.691406 -23.476562 3.269531 -23.53125 2.875 -23.59375 C 2.476562 -23.65625 2.207031 -23.710938 2.0625 -23.765625 C 2.03125 -24.066406 2.007812 -24.363281 2 -24.65625 C 1.988281 -24.945312 1.984375 -25.242188 1.984375 -25.546875 L 11.640625 -25.546875 C 11.640625 -25.242188 11.628906 -24.945312 11.609375 -24.65625 C 11.597656 -24.363281 11.59375 -24.066406 11.59375 -23.765625 C 11.4375 -23.710938 11.160156 -23.65625 10.765625 -23.59375 C 10.378906 -23.53125 9.960938 -23.476562 9.515625 -23.4375 C 9.066406 -23.394531 8.679688 -23.363281 8.359375 -23.34375 L 8.359375 -2.21875 C 8.679688 -2.1875 9.070312 -2.148438 9.53125 -2.109375 C 9.988281 -2.078125 10.421875 -2.035156 10.828125 -1.984375 C 11.234375 -1.929688 11.515625 -1.867188 11.671875 -1.796875 C 11.671875 -1.484375 11.675781 -1.179688 11.6875 -0.890625 C 11.695312 -0.597656 11.703125 -0.300781 11.703125 0 Z M 11.703125 0 "/></g></g></g><g fill="#000000" fill-opacity="1"><g transform="translate(650.118654, 561.761503)"><g><path d="M 9.6875 0.34375 C 8.414062 0.34375 7.238281 0.191406 6.15625 -0.109375 C 5.070312 -0.421875 4.144531 -0.820312 3.375 -1.3125 C 2.601562 -1.8125 2.035156 -2.316406 1.671875 -2.828125 L 2.4375 -7.546875 C 2.539062 -7.578125 2.628906 -7.59375 2.703125 -7.59375 C 2.785156 -7.59375 2.863281 -7.59375 2.9375 -7.59375 C 3.550781 -7.59375 3.984375 -7.363281 4.234375 -6.90625 C 4.484375 -6.445312 4.609375 -5.785156 4.609375 -4.921875 C 4.609375 -4.742188 4.601562 -4.546875 4.59375 -4.328125 C 4.582031 -4.109375 4.5625 -3.875 4.53125 -3.625 C 4.96875 -3.1875 5.613281 -2.785156 6.46875 -2.421875 C 7.320312 -2.054688 8.332031 -1.875 9.5 -1.875 C 10.363281 -1.875 11.226562 -2.023438 12.09375 -2.328125 C 12.957031 -2.628906 13.6875 -3.101562 14.28125 -3.75 C 14.882812 -4.40625 15.1875 -5.253906 15.1875 -6.296875 C 15.1875 -7.304688 14.882812 -8.15625 14.28125 -8.84375 C 13.6875 -9.53125 12.910156 -10.140625 11.953125 -10.671875 C 11.003906 -11.210938 9.992188 -11.726562 8.921875 -12.21875 C 7.859375 -12.71875 6.847656 -13.269531 5.890625 -13.875 C 4.941406 -14.488281 4.164062 -15.222656 3.5625 -16.078125 C 2.96875 -16.929688 2.671875 -17.96875 2.671875 -19.1875 C 2.671875 -20.582031 3.03125 -21.773438 3.75 -22.765625 C 4.476562 -23.753906 5.457031 -24.519531 6.6875 -25.0625 C 7.925781 -25.613281 9.296875 -25.890625 10.796875 -25.890625 C 12.296875 -25.890625 13.601562 -25.664062 14.71875 -25.21875 C 15.84375 -24.78125 16.722656 -24.269531 17.359375 -23.6875 L 16.78125 -19.140625 C 16.726562 -19.140625 16.675781 -19.140625 16.625 -19.140625 C 16.570312 -19.140625 16.523438 -19.140625 16.484375 -19.140625 C 15.617188 -19.140625 15.078125 -19.429688 14.859375 -20.015625 C 14.640625 -20.609375 14.539062 -21.4375 14.5625 -22.5 C 13.550781 -23.289062 12.269531 -23.6875 10.71875 -23.6875 C 9.820312 -23.6875 8.992188 -23.53125 8.234375 -23.21875 C 7.472656 -22.914062 6.859375 -22.472656 6.390625 -21.890625 C 5.921875 -21.304688 5.6875 -20.59375 5.6875 -19.75 C 5.6875 -18.8125 5.988281 -18.003906 6.59375 -17.328125 C 7.207031 -16.660156 7.984375 -16.054688 8.921875 -15.515625 C 9.867188 -14.984375 10.878906 -14.457031 11.953125 -13.9375 C 13.035156 -13.414062 14.046875 -12.835938 14.984375 -12.203125 C 15.929688 -11.566406 16.707031 -10.8125 17.3125 -9.9375 C 17.925781 -9.0625 18.234375 -7.988281 18.234375 -6.71875 C 18.234375 -5.3125 17.863281 -4.070312 17.125 -3 C 16.382812 -1.9375 15.375 -1.113281 14.09375 -0.53125 C 12.8125 0.0507812 11.34375 0.34375 9.6875 0.34375 Z M 9.6875 0.34375 "/></g></g></g><g fill="#000000" fill-opacity="1"><g transform="translate(683.79473, 561.761503)"><g><path d="M 20.09375 -5.765625 L 20.09375 0.109375 L 15.40625 0 L 1.90625 0 C 1.925781 -0.300781 1.941406 -0.597656 1.953125 -0.890625 C 1.972656 -1.179688 1.984375 -1.484375 1.984375 -1.796875 C 2.160156 -1.867188 2.453125 -1.929688 2.859375 -1.984375 C 3.265625 -2.035156 3.691406 -2.078125 4.140625 -2.109375 C 4.585938 -2.148438 4.972656 -2.1875 5.296875 -2.21875 L 5.296875 -23.34375 C 3.878906 -23.394531 2.953125 -23.597656 2.515625 -23.953125 C 2.085938 -24.304688 1.910156 -24.835938 1.984375 -25.546875 L 11.640625 -25.546875 C 11.640625 -25.242188 11.628906 -24.945312 11.609375 -24.65625 C 11.597656 -24.363281 11.59375 -24.066406 11.59375 -23.765625 C 11.4375 -23.710938 11.160156 -23.65625 10.765625 -23.59375 C 10.378906 -23.53125 9.960938 -23.476562 9.515625 -23.4375 C 9.066406 -23.394531 8.679688 -23.363281 8.359375 -23.34375 L 8.359375 -2.21875 L 17.625 -2.21875 C 17.644531 -3.382812 17.75 -4.273438 17.9375 -4.890625 C 18.132812 -5.515625 18.613281 -5.828125 19.375 -5.828125 C 19.5 -5.828125 19.617188 -5.820312 19.734375 -5.8125 C 19.847656 -5.800781 19.96875 -5.785156 20.09375 -5.765625 Z M 20.09375 -5.765625 "/></g></g></g><g fill="#000000" fill-opacity="1"><g transform="translate(718.614802, 561.761503)"><g><path d="M 9.421875 0 L 0.375 0 C 0.375 -0.300781 0.378906 -0.597656 0.390625 -0.890625 C 0.410156 -1.179688 0.429688 -1.484375 0.453125 -1.796875 C 0.679688 -1.867188 1.078125 -1.941406 1.640625 -2.015625 C 2.203125 -2.097656 2.722656 -2.148438 3.203125 -2.171875 L 11.328125 -23.53125 C 11.117188 -23.507812 10.910156 -23.5 10.703125 -23.5 C 10.503906 -23.5 10.34375 -23.5 10.21875 -23.5 C 10.195312 -23.5 10.164062 -23.5 10.125 -23.5 C 10.082031 -23.5 10.050781 -23.5 10.03125 -23.5 C 9.0625 -23.625 8.523438 -24.039062 8.421875 -24.75 C 8.398438 -24.875 8.382812 -24.988281 8.375 -25.09375 C 8.363281 -25.195312 8.367188 -25.3125 8.390625 -25.4375 L 15.484375 -25.859375 L 24.21875 -2.21875 C 24.695312 -2.1875 25.226562 -2.128906 25.8125 -2.046875 C 26.40625 -1.972656 26.828125 -1.890625 27.078125 -1.796875 C 27.078125 -1.484375 27.082031 -1.179688 27.09375 -0.890625 C 27.113281 -0.597656 27.132812 -0.300781 27.15625 0 L 17.390625 0 C 17.390625 -0.300781 17.394531 -0.597656 17.40625 -0.890625 C 17.425781 -1.179688 17.4375 -1.484375 17.4375 -1.796875 C 17.613281 -1.867188 17.914062 -1.929688 18.34375 -1.984375 C 18.78125 -2.035156 19.242188 -2.078125 19.734375 -2.109375 C 20.234375 -2.148438 20.632812 -2.1875 20.9375 -2.21875 L 18.796875 -7.9375 L 7.96875 -7.9375 L 5.828125 -2.21875 C 6.160156 -2.1875 6.566406 -2.148438 7.046875 -2.109375 C 7.535156 -2.078125 8 -2.035156 8.4375 -1.984375 C 8.882812 -1.929688 9.1875 -1.867188 9.34375 -1.796875 C 9.363281 -1.484375 9.378906 -1.179688 9.390625 -0.890625 C 9.410156 -0.597656 9.421875 -0.300781 9.421875 0 Z M 13.390625 -22.890625 L 12.625 -20.59375 L 8.765625 -10.109375 L 18.046875 -10.109375 L 14.21875 -20.640625 L 13.46875 -22.890625 Z M 13.390625 -22.890625 "/></g></g></g><g fill="#000000" fill-opacity="1"><g transform="translate(759.498354, 561.761503)"><g><path d="M 25.96875 -23.34375 L 25.96875 0 C 25.644531 0.0195312 25.285156 0.0507812 24.890625 0.09375 C 24.492188 0.132812 24.128906 0.179688 23.796875 0.234375 L 7.625 -21.515625 L 7.625 -2.21875 C 7.957031 -2.1875 8.351562 -2.148438 8.8125 -2.109375 C 9.269531 -2.078125 9.703125 -2.035156 10.109375 -1.984375 C 10.515625 -1.929688 10.796875 -1.867188 10.953125 -1.796875 C 10.953125 -1.484375 10.957031 -1.179688 10.96875 -0.890625 C 10.976562 -0.597656 10.984375 -0.300781 10.984375 0 L 1.90625 0 C 1.925781 -0.300781 1.941406 -0.597656 1.953125 -0.890625 C 1.972656 -1.179688 1.984375 -1.484375 1.984375 -1.796875 C 2.160156 -1.867188 2.453125 -1.929688 2.859375 -1.984375 C 3.265625 -2.035156 3.691406 -2.078125 4.140625 -2.109375 C 4.585938 -2.148438 4.972656 -2.1875 5.296875 -2.21875 L 5.296875 -23.34375 C 4.972656 -23.363281 4.585938 -23.394531 4.140625 -23.4375 C 3.691406 -23.476562 3.269531 -23.53125 2.875 -23.59375 C 2.476562 -23.65625 2.207031 -23.710938 2.0625 -23.765625 C 2.03125 -24.066406 2.007812 -24.363281 2 -24.65625 C 1.988281 -24.945312 1.984375 -25.242188 1.984375 -25.546875 L 8.125 -25.546875 L 23.578125 -4.8125 L 23.640625 -23.34375 C 23.335938 -23.363281 22.957031 -23.394531 22.5 -23.4375 C 22.039062 -23.476562 21.613281 -23.53125 21.21875 -23.59375 C 20.832031 -23.65625 20.5625 -23.710938 20.40625 -23.765625 C 20.375 -24.066406 20.351562 -24.363281 20.34375 -24.65625 C 20.332031 -24.945312 20.328125 -25.242188 20.328125 -25.546875 L 29.25 -25.546875 C 29.25 -25.242188 29.242188 -24.945312 29.234375 -24.65625 C 29.222656 -24.363281 29.203125 -24.066406 29.171875 -23.765625 C 29.023438 -23.710938 28.753906 -23.65625 28.359375 -23.59375 C 27.960938 -23.53125 27.546875 -23.476562 27.109375 -23.4375 C 26.679688 -23.394531 26.300781 -23.363281 25.96875 -23.34375 Z M 25.96875 -23.34375 "/></g></g></g><g fill="#000000" fill-opacity="1"><g transform="translate(804.042895, 561.761503)"><g><path d="M 6.515625 0 L 1.90625 0 C 1.925781 -0.300781 1.941406 -0.597656 1.953125 -0.890625 C 1.972656 -1.179688 1.984375 -1.484375 1.984375 -1.796875 C 2.160156 -1.867188 2.453125 -1.929688 2.859375 -1.984375 C 3.265625 -2.035156 3.691406 -2.078125 4.140625 -2.109375 C 4.585938 -2.148438 4.972656 -2.1875 5.296875 -2.21875 L 5.296875 -23.34375 C 3.796875 -23.394531 2.84375 -23.601562 2.4375 -23.96875 C 2.03125 -24.34375 1.878906 -24.867188 1.984375 -25.546875 L 7.75 -25.546875 C 8 -25.546875 8.390625 -25.550781 8.921875 -25.5625 C 9.453125 -25.582031 10.035156 -25.601562 10.671875 -25.625 C 11.316406 -25.65625 11.90625 -25.671875 12.4375 -25.671875 C 15.488281 -25.671875 18.070312 -25.125 20.1875 -24.03125 C 22.3125 -22.9375 23.929688 -21.441406 25.046875 -19.546875 C 26.171875 -17.648438 26.734375 -15.492188 26.734375 -13.078125 C 26.734375 -8.609375 25.445312 -5.285156 22.875 -3.109375 C 20.3125 -0.929688 16.789062 0.15625 12.3125 0.15625 C 11.757812 0.15625 11.066406 0.140625 10.234375 0.109375 C 9.410156 0.0859375 8.640625 0.0625 7.921875 0.03125 C 7.210938 0.0078125 6.742188 0 6.515625 0 Z M 8.359375 -23.296875 L 8.359375 -2.25 C 8.941406 -2.226562 9.59375 -2.195312 10.3125 -2.15625 C 11.039062 -2.113281 11.785156 -2.09375 12.546875 -2.09375 C 16.003906 -2.09375 18.707031 -2.988281 20.65625 -4.78125 C 22.601562 -6.570312 23.578125 -9.273438 23.578125 -12.890625 C 23.578125 -16.347656 22.53125 -18.957031 20.4375 -20.71875 C 18.351562 -22.488281 15.53125 -23.375 11.96875 -23.375 C 11.75 -23.375 11.414062 -23.367188 10.96875 -23.359375 C 10.519531 -23.347656 10.050781 -23.34375 9.5625 -23.34375 C 9.082031 -23.34375 8.679688 -23.328125 8.359375 -23.296875 Z M 8.359375 -23.296875 "/></g></g></g><g transform="matrix(1, 0, 0, 1, 204, -0.000000000000005375)"><g clip-path="url(#2bc6e7bf63)"><g fill="#000000" fill-opacity="1"><g transform="translate(181.934568, 263.721081)"><g><path d="M 273.578125 -199.953125 C 277.054688 -197.722656 278.226562 -194.609375 277.09375 -190.609375 C 276.375 -188.671875 275.425781 -186.851562 274.25 -185.15625 C 272.3125 -182.40625 270.007812 -179.960938 267.34375 -177.828125 C 254.894531 -167.234375 240.59375 -160.707031 224.4375 -158.25 C 220.875 -157.6875 217.316406 -157.0625 213.765625 -156.375 C 212.148438 -156.007812 210.632812 -156.085938 209.21875 -156.609375 C 208.332031 -156.972656 207.890625 -157.5625 207.890625 -158.375 C 207.960938 -158.726562 208.085938 -159.078125 208.265625 -159.421875 C 208.453125 -159.765625 208.671875 -159.976562 208.921875 -160.0625 C 210.085938 -160.707031 211.296875 -161.15625 212.546875 -161.40625 C 214.128906 -161.6875 215.726562 -161.96875 217.34375 -162.25 C 218.507812 -162.332031 219.703125 -162.492188 220.921875 -162.734375 C 228.921875 -164.191406 236.253906 -166.867188 242.921875 -170.765625 C 249.585938 -174.660156 255.769531 -179.5 261.46875 -185.28125 C 263.164062 -186.894531 264.457031 -188.8125 265.34375 -191.03125 C 266.3125 -193.695312 265.5625 -195.597656 263.09375 -196.734375 C 259.863281 -197.898438 256.570312 -198.523438 253.21875 -198.609375 C 249.019531 -198.609375 244.878906 -198.609375 240.796875 -198.609375 C 239.015625 -198.609375 237.238281 -198.609375 235.46875 -198.609375 C 224.875 -198.609375 214.332031 -198.050781 203.84375 -196.9375 C 193.363281 -195.832031 182.890625 -194.53125 172.421875 -193.03125 C 155.773438 -190.894531 139.191406 -188.3125 122.671875 -185.28125 C 122.753906 -183.050781 122.796875 -180.828125 122.796875 -178.609375 C 122.796875 -150.453125 122.796875 -122.332031 122.796875 -94.25 C 122.796875 -84.988281 122.796875 -75.734375 122.796875 -66.484375 C 122.796875 -57.429688 122.796875 -48.398438 122.796875 -39.390625 C 122.796875 -13.367188 122.796875 12.671875 122.796875 38.734375 C 122.796875 45.640625 122.671875 52.566406 122.421875 59.515625 C 122.421875 63.234375 120.644531 64.789062 117.09375 64.1875 C 115.3125 63.90625 114.28125 62.9375 114 61.28125 C 114 60.550781 113.957031 59.820312 113.875 59.09375 C 113.59375 55.738281 113.453125 52.320312 113.453125 48.84375 C 113.378906 26.457031 113.34375 4.015625 113.34375 -18.484375 C 113.34375 -73.515625 113.34375 -128.546875 113.34375 -183.578125 C 113.175781 -183.460938 112.992188 -183.40625 112.796875 -183.40625 C 112.265625 -183.320312 111.78125 -183.238281 111.34375 -183.15625 C 98.164062 -180.570312 85.128906 -177.5 72.234375 -173.9375 C 59.347656 -170.382812 46.644531 -166.207031 34.125 -161.40625 C 29.675781 -159.738281 25.269531 -157.878906 20.90625 -155.828125 C 19.570312 -155.210938 18.300781 -154.625 17.09375 -154.0625 C 14.664062 -153.175781 12.742188 -151.582031 11.328125 -149.28125 C 10.359375 -147.863281 8.894531 -147.132812 6.9375 -147.09375 C 4.976562 -147.050781 3.25 -147.597656 1.75 -148.734375 C 0.582031 -149.828125 0.441406 -151 1.328125 -152.25 C 2.296875 -153.582031 3.46875 -154.710938 4.84375 -155.640625 C 6.21875 -156.566406 7.675781 -157.4375 9.21875 -158.25 C 16.851562 -162.125 24.628906 -165.5 32.546875 -168.375 C 52.710938 -175.726562 73.238281 -181.6875 94.125 -186.25 C 100.550781 -187.582031 106.957031 -188.851562 113.34375 -190.0625 C 113.414062 -191.394531 113.492188 -192.691406 113.578125 -193.953125 C 113.859375 -195.640625 114.6875 -196.816406 116.0625 -197.484375 C 117.4375 -198.148438 118.972656 -198.082031 120.671875 -197.28125 C 121.921875 -196.59375 122.503906 -195.519531 122.421875 -194.0625 C 122.421875 -193.300781 122.460938 -192.515625 122.546875 -191.703125 C 137.898438 -194.367188 153.316406 -196.773438 168.796875 -198.921875 C 184.878906 -201.222656 201.019531 -203 217.21875 -204.25 C 229.820312 -205.132812 242.445312 -205.253906 255.09375 -204.609375 C 259.175781 -204.367188 263.21875 -203.742188 267.21875 -202.734375 C 269.519531 -202.210938 271.640625 -201.285156 273.578125 -199.953125 Z M 273.578125 -199.953125 "/></g></g></g><g fill="#000000" fill-opacity="1"><g transform="translate(329.80624, 263.721081)"><g><path d="M 59.390625 -29.421875 C 62.828125 -33.242188 64.632812 -34.707031 64.8125 -33.8125 C 65 -32.925781 64.265625 -30.859375 62.609375 -27.609375 C 60.953125 -24.359375 58.382812 -21.578125 54.90625 -19.265625 C 52.363281 -17.691406 50.171875 -16.628906 48.328125 -16.078125 C 46.492188 -15.535156 44.828125 -15.226562 43.328125 -15.15625 C 40.378906 -14.988281 38.128906 -15.832031 36.578125 -17.6875 C 35.023438 -19.550781 33.941406 -21.945312 33.328125 -24.875 C 32.722656 -27.8125 32.28125 -30.832031 32 -33.9375 C 31.71875 -35.914062 31.457031 -37.695312 31.21875 -39.28125 C 30.851562 -41.78125 30.132812 -43.160156 29.0625 -43.421875 C 27.988281 -43.679688 26.34375 -42.078125 24.125 -38.609375 C 21.820312 -34.890625 19.800781 -30.785156 18.0625 -26.296875 C 16.320312 -21.816406 14.785156 -17.4375 13.453125 -13.15625 C 13.367188 -12.988281 13.289062 -12.765625 13.21875 -12.484375 C 12.925781 -11.878906 12.703125 -11.253906 12.546875 -10.609375 C 12.023438 -8.828125 11.398438 -7.085938 10.671875 -5.390625 C 10.066406 -3.972656 9.023438 -3.039062 7.546875 -2.59375 C 6.066406 -2.15625 4.519531 -2.257812 2.90625 -2.90625 C 1.851562 -3.351562 1.144531 -4.101562 0.78125 -5.15625 C 0.257812 -6.769531 0.0820312 -8.40625 0.25 -10.0625 C 0.25 -10.257812 0.25 -10.398438 0.25 -10.484375 C 0.601562 -17.515625 0.660156 -29.210938 0.421875 -45.578125 C 0.222656 -58.628906 0.125 -72.671875 0.125 -87.703125 C 0.125 -102.734375 0.503906 -116.914062 1.265625 -130.25 C 2.035156 -143.582031 3.351562 -154.25 5.21875 -162.25 C 6.019531 -165.15625 7.347656 -167.769531 9.203125 -170.09375 C 11.066406 -172.414062 13.128906 -173.6875 15.390625 -173.90625 C 17.648438 -174.132812 19.773438 -172.59375 21.765625 -169.28125 C 23.097656 -166.445312 23.925781 -163.4375 24.25 -160.25 C 25.132812 -150.789062 24.332031 -136.265625 21.84375 -116.671875 C 19.363281 -97.078125 16.769531 -79.925781 14.0625 -65.21875 C 11.351562 -50.507812 10 -38.222656 10 -28.359375 C 10.882812 -29.859375 11.773438 -31.457031 12.671875 -33.15625 C 13.921875 -35.65625 15.320312 -38.144531 16.875 -40.625 C 18.4375 -43.113281 20.273438 -45.226562 22.390625 -46.96875 C 24.515625 -48.707031 27.09375 -49.800781 30.125 -50.25 C 32.1875 -50.570312 34.273438 -50.425781 36.390625 -49.8125 C 38.515625 -49.207031 39.941406 -47.734375 40.671875 -45.390625 C 41.554688 -41.316406 41.859375 -36.972656 41.578125 -32.359375 C 41.578125 -27.472656 42.425781 -24.382812 44.125 -23.09375 C 45.820312 -21.800781 47.929688 -21.578125 50.453125 -22.421875 C 52.984375 -23.273438 55.960938 -25.609375 59.390625 -29.421875 Z M 14.125 -154.734375 C 13.675781 -149.679688 13.171875 -141.242188 12.609375 -129.421875 C 12.046875 -117.609375 11.5625 -105.757812 11.15625 -93.875 C 10.75 -82 10.546875 -72.125 10.546875 -64.25 C 11.515625 -71.351562 12.6875 -80.613281 14.0625 -92.03125 C 15.4375 -103.445312 16.65625 -115.191406 17.71875 -127.265625 C 18.789062 -139.347656 19.328125 -148.421875 19.328125 -154.484375 C 19.253906 -157.679688 19.035156 -160.054688 18.671875 -161.609375 C 18.304688 -163.160156 17.695312 -163.710938 16.84375 -163.265625 C 16 -162.828125 15.351562 -161.695312 14.90625 -159.875 C 14.46875 -158.0625 14.207031 -156.347656 14.125 -154.734375 Z M 14.125 -154.734375 "/></g></g></g><g fill="#000000" fill-opacity="1"><g transform="translate(391.318439, 263.721081)"><g><path d="M 58.421875 -29.28125 C 59.316406 -29.800781 60.1875 -30.203125 61.03125 -30.484375 C 61.882812 -30.765625 62.441406 -30.742188 62.703125 -30.421875 C 62.960938 -30.097656 62.609375 -29.375 61.640625 -28.25 C 58.609375 -24.769531 54.976562 -21.582031 50.75 -18.6875 C 46.53125 -15.800781 42.203125 -13.367188 37.765625 -11.390625 C 34.285156 -9.816406 30.613281 -8.566406 26.75 -7.640625 C 22.894531 -6.710938 19.078125 -6.507812 15.296875 -7.03125 C 11.523438 -7.550781 8.082031 -9.226562 4.96875 -12.0625 C 0.238281 -16.425781 -1.71875 -21.757812 -0.90625 -28.0625 C -0.21875 -33.070312 1.726562 -37.320312 4.9375 -40.8125 C 8.15625 -44.3125 12.207031 -46.6875 17.09375 -47.9375 C 21.175781 -48.832031 25.253906 -48.9375 29.328125 -48.25 C 31.191406 -47.957031 32.890625 -47.328125 34.421875 -46.359375 C 35.835938 -45.273438 36.613281 -44.003906 36.75 -42.546875 C 36.894531 -41.085938 36.34375 -39.691406 35.09375 -38.359375 C 32.507812 -36.054688 29.519531 -34.6875 26.125 -34.25 C 22.320312 -33.601562 18.503906 -33.195312 14.671875 -33.03125 C 12.804688 -33.03125 11.5 -32.644531 10.75 -31.875 C 10.007812 -31.113281 9.578125 -29.800781 9.453125 -27.9375 C 8.847656 -22.882812 10.460938 -18.765625 14.296875 -15.578125 C 16.679688 -13.679688 19.582031 -12.875 23 -13.15625 C 26.414062 -13.4375 30.039062 -14.351562 33.875 -15.90625 C 37.71875 -17.46875 41.476562 -19.285156 45.15625 -21.359375 C 48.832031 -23.441406 52.144531 -25.414062 55.09375 -27.28125 C 56.34375 -28.082031 57.453125 -28.75 58.421875 -29.28125 Z M 16.296875 -40.0625 C 16.296875 -39.976562 16.238281 -39.9375 16.125 -39.9375 C 15.957031 -39.78125 15.742188 -39.585938 15.484375 -39.359375 C 15.222656 -39.140625 14.976562 -38.914062 14.75 -38.6875 C 14.53125 -38.46875 14.421875 -38.320312 14.421875 -38.25 C 14.503906 -37.957031 15.234375 -37.882812 16.609375 -38.03125 C 17.984375 -38.175781 19.5 -38.421875 21.15625 -38.765625 C 22.8125 -39.109375 24.191406 -39.570312 25.296875 -40.15625 C 26.410156 -40.738281 26.742188 -41.4375 26.296875 -42.25 C 26.097656 -42.488281 25.847656 -42.695312 25.546875 -42.875 C 25.242188 -43.0625 24.910156 -43.195312 24.546875 -43.28125 C 22.929688 -43.28125 21.457031 -42.960938 20.125 -42.328125 C 18.789062 -41.703125 17.515625 -40.945312 16.296875 -40.0625 Z M 16.296875 -40.0625 "/></g></g></g><g fill="#000000" fill-opacity="1"><g transform="translate(1.211171, 474.474931)"><g><path d="M 262.25 -227.703125 C 274.09375 -216.835938 277.609375 -203.726562 272.796875 -188.375 C 271.910156 -185.707031 270.800781 -183.117188 269.46875 -180.609375 C 267 -176.160156 264.175781 -171.988281 261 -168.09375 C 257.832031 -164.195312 254.472656 -160.46875 250.921875 -156.90625 C 248.535156 -154.40625 245.742188 -153.5625 242.546875 -154.375 C 241.660156 -154.445312 241.078125 -154.890625 240.796875 -155.703125 C 240.628906 -156.503906 240.851562 -157.171875 241.46875 -157.703125 C 247.238281 -163.273438 252.304688 -169.457031 256.671875 -176.25 C 259.785156 -180.769531 262.050781 -185.660156 263.46875 -190.921875 C 266.9375 -205.140625 263.035156 -216.851562 251.765625 -226.0625 C 246.429688 -230.269531 240.472656 -233.222656 233.890625 -234.921875 C 227.660156 -236.578125 221.414062 -237.65625 215.15625 -238.15625 C 208.894531 -238.664062 202.59375 -238.695312 196.25 -238.25 C 186.59375 -237.6875 177.003906 -236.566406 167.484375 -234.890625 C 157.972656 -233.210938 148.507812 -231.222656 139.09375 -228.921875 C 126.8125 -225.890625 114.757812 -222.171875 102.9375 -217.765625 C 91.125 -213.359375 79.660156 -208.125 68.546875 -202.0625 C 57.796875 -196.289062 47.835938 -189.363281 38.671875 -181.28125 C 30.503906 -174.082031 23.796875 -165.675781 18.546875 -156.0625 C 11.796875 -143.289062 12.363281 -130.847656 20.25 -118.734375 C 25.257812 -111.460938 31.21875 -105.015625 38.125 -99.390625 C 48.875 -90.503906 60.207031 -82.503906 72.125 -75.390625 C 82.1875 -69.367188 92.226562 -63.429688 102.25 -57.578125 C 108.914062 -53.734375 115.539062 -49.851562 122.125 -45.9375 C 126.851562 -43.1875 131.476562 -40.347656 136 -37.421875 C 140.53125 -34.492188 144.9375 -31.332031 149.21875 -27.9375 C 151.800781 -25.800781 154.648438 -25.273438 157.765625 -26.359375 C 168.429688 -29.472656 179.257812 -31.695312 190.25 -33.03125 C 190.613281 -33.03125 190.976562 -33.070312 191.34375 -33.15625 C 193.84375 -33.59375 196.285156 -33.59375 198.671875 -33.15625 C 199.273438 -32.988281 199.800781 -32.703125 200.25 -32.296875 C 200.695312 -31.898438 200.921875 -31.296875 200.921875 -30.484375 C 200.921875 -29.679688 200.675781 -29.078125 200.1875 -28.671875 C 199.695312 -28.265625 199.148438 -28.0625 198.546875 -28.0625 C 194.710938 -27.976562 190.976562 -27.582031 187.34375 -26.875 C 183.707031 -26.164062 180.109375 -25.367188 176.546875 -24.484375 C 173.679688 -23.753906 170.875 -23.128906 168.125 -22.609375 C 167.757812 -22.523438 167.414062 -22.441406 167.09375 -22.359375 C 165.757812 -22.160156 164.445312 -21.835938 163.15625 -21.390625 C 161.863281 -20.953125 160.734375 -20.285156 159.765625 -19.390625 C 160.453125 -17.617188 161.421875 -16.164062 162.671875 -15.03125 C 163.191406 -14.382812 163.71875 -13.71875 164.25 -13.03125 C 166.46875 -10.082031 168.40625 -7.03125 170.0625 -3.875 C 171.71875 -0.726562 172.953125 2.625 173.765625 6.1875 C 175.703125 15.351562 172.710938 22.421875 164.796875 27.390625 C 162.128906 28.972656 159.335938 30.304688 156.421875 31.390625 C 146.078125 35.109375 135.453125 36.664062 124.546875 36.0625 C 120.265625 35.78125 116.265625 34.707031 112.546875 32.84375 C 107.453125 30.175781 104.109375 26.4375 102.515625 21.625 C 100.921875 16.820312 101.375 11.859375 103.875 6.734375 C 105.570312 3.410156 107.796875 0.5625 110.546875 -1.8125 C 114.023438 -4.925781 117.734375 -7.703125 121.671875 -10.140625 C 125.609375 -12.585938 129.679688 -14.84375 133.890625 -16.90625 C 135.660156 -17.800781 137.394531 -18.691406 139.09375 -19.578125 C 139.976562 -20.023438 140.867188 -20.46875 141.765625 -20.90625 C 141.847656 -21.875 141.6875 -22.617188 141.28125 -23.140625 C 140.875 -23.671875 140.410156 -24.117188 139.890625 -24.484375 C 139.679688 -24.566406 139.5 -24.707031 139.34375 -24.90625 C 132.144531 -30.40625 124.628906 -35.414062 116.796875 -39.9375 C 107.296875 -45.550781 97.738281 -51.109375 88.125 -56.609375 C 84.125 -58.910156 80.125 -61.273438 76.125 -63.703125 C 62.257812 -71.703125 48.925781 -80.488281 36.125 -90.0625 C 28.207031 -95.957031 21.054688 -102.625 14.671875 -110.0625 C 11.554688 -113.90625 8.925781 -118.046875 6.78125 -122.484375 C 2.257812 -131.984375 1.816406 -141.765625 5.453125 -151.828125 C 7.316406 -156.992188 9.800781 -161.769531 12.90625 -166.15625 C 16.019531 -170.539062 19.457031 -174.691406 23.21875 -178.609375 C 31.582031 -187.253906 40.8125 -194.628906 50.90625 -200.734375 C 67.71875 -211.078125 85.457031 -219.359375 104.125 -225.578125 C 127.4375 -233.378906 151.253906 -238.9375 175.578125 -242.25 C 184.023438 -243.382812 192.5 -244.0625 201 -244.28125 C 209.507812 -244.5 217.988281 -243.941406 226.4375 -242.609375 C 231.476562 -241.921875 236.375 -240.859375 241.125 -239.421875 C 245.875 -237.992188 250.429688 -235.945312 254.796875 -233.28125 C 257.460938 -231.582031 259.945312 -229.722656 262.25 -227.703125 Z M 150.90625 -14.0625 C 149.5 -15.519531 147.863281 -15.742188 146 -14.734375 C 141.269531 -12.628906 136.710938 -10.265625 132.328125 -7.640625 C 127.953125 -5.015625 123.765625 -2.046875 119.765625 1.265625 C 117.617188 3.128906 115.835938 5.296875 114.421875 7.765625 C 111.753906 12.847656 111.460938 17.5625 113.546875 21.90625 C 115.628906 26.25 119.476562 28.925781 125.09375 29.9375 C 126.425781 30.101562 127.617188 30.222656 128.671875 30.296875 C 129.035156 30.296875 129.335938 30.296875 129.578125 30.296875 C 138.140625 30.054688 145.914062 28.320312 152.90625 25.09375 C 161.632812 21.375 164.804688 14.925781 162.421875 5.75 C 161.410156 1.957031 159.90625 -1.5625 157.90625 -4.8125 C 155.90625 -8.070312 153.570312 -11.15625 150.90625 -14.0625 Z M 150.90625 -14.0625 "/></g></g></g><g fill="#000000" fill-opacity="1"><g transform="translate(196.11089, 474.474931)"><g><path d="M 58.421875 -29.28125 C 59.316406 -29.800781 60.1875 -30.203125 61.03125 -30.484375 C 61.882812 -30.765625 62.441406 -30.742188 62.703125 -30.421875 C 62.960938 -30.097656 62.609375 -29.375 61.640625 -28.25 C 58.609375 -24.769531 54.976562 -21.582031 50.75 -18.6875 C 46.53125 -15.800781 42.203125 -13.367188 37.765625 -11.390625 C 34.285156 -9.816406 30.613281 -8.566406 26.75 -7.640625 C 22.894531 -6.710938 19.078125 -6.507812 15.296875 -7.03125 C 11.523438 -7.550781 8.082031 -9.226562 4.96875 -12.0625 C 0.238281 -16.425781 -1.71875 -21.757812 -0.90625 -28.0625 C -0.21875 -33.070312 1.726562 -37.320312 4.9375 -40.8125 C 8.15625 -44.3125 12.207031 -46.6875 17.09375 -47.9375 C 21.175781 -48.832031 25.253906 -48.9375 29.328125 -48.25 C 31.191406 -47.957031 32.890625 -47.328125 34.421875 -46.359375 C 35.835938 -45.273438 36.613281 -44.003906 36.75 -42.546875 C 36.894531 -41.085938 36.34375 -39.691406 35.09375 -38.359375 C 32.507812 -36.054688 29.519531 -34.6875 26.125 -34.25 C 22.320312 -33.601562 18.503906 -33.195312 14.671875 -33.03125 C 12.804688 -33.03125 11.5 -32.644531 10.75 -31.875 C 10.007812 -31.113281 9.578125 -29.800781 9.453125 -27.9375 C 8.847656 -22.882812 10.460938 -18.765625 14.296875 -15.578125 C 16.679688 -13.679688 19.582031 -12.875 23 -13.15625 C 26.414062 -13.4375 30.039062 -14.351562 33.875 -15.90625 C 37.71875 -17.46875 41.476562 -19.285156 45.15625 -21.359375 C 48.832031 -23.441406 52.144531 -25.414062 55.09375 -27.28125 C 56.34375 -28.082031 57.453125 -28.75 58.421875 -29.28125 Z M 16.296875 -40.0625 C 16.296875 -39.976562 16.238281 -39.9375 16.125 -39.9375 C 15.957031 -39.78125 15.742188 -39.585938 15.484375 -39.359375 C 15.222656 -39.140625 14.976562 -38.914062 14.75 -38.6875 C 14.53125 -38.46875 14.421875 -38.320312 14.421875 -38.25 C 14.503906 -37.957031 15.234375 -37.882812 16.609375 -38.03125 C 17.984375 -38.175781 19.5 -38.421875 21.15625 -38.765625 C 22.8125 -39.109375 24.191406 -39.570312 25.296875 -40.15625 C 26.410156 -40.738281 26.742188 -41.4375 26.296875 -42.25 C 26.097656 -42.488281 25.847656 -42.695312 25.546875 -42.875 C 25.242188 -43.0625 24.910156 -43.195312 24.546875 -43.28125 C 22.929688 -43.28125 21.457031 -42.960938 20.125 -42.328125 C 18.789062 -41.703125 17.515625 -40.945312 16.296875 -40.0625 Z M 16.296875 -40.0625 "/></g></g></g><g fill="#000000" fill-opacity="1"><g transform="translate(254.774735, 474.474931)"><g><path d="M 56.25 -29.578125 C 57.945312 -30.628906 59.066406 -30.929688 59.609375 -30.484375 C 60.148438 -30.035156 59.796875 -28.96875 58.546875 -27.28125 C 54.910156 -22.914062 50.394531 -18.84375 45 -15.0625 C 39.601562 -11.28125 34.238281 -8.5625 28.90625 -6.90625 C 25.476562 -5.65625 21.800781 -5.03125 17.875 -5.03125 C 15.132812 -4.945312 12.367188 -5.351562 9.578125 -6.25 C 3.554688 -8.1875 0.140625 -12.304688 -0.671875 -18.609375 C -1.109375 -22.078125 -0.882812 -25.550781 0 -29.03125 C 1.050781 -32.582031 2.757812 -35.691406 5.125 -38.359375 C 7.488281 -41.023438 10.40625 -43.066406 13.875 -44.484375 C 17.144531 -45.734375 20.535156 -46.226562 24.046875 -45.96875 C 27.566406 -45.707031 30.441406 -44.585938 32.671875 -42.609375 C 33.035156 -42.242188 33.21875 -41.796875 33.21875 -41.265625 C 33.21875 -40.742188 33.113281 -40.222656 32.90625 -39.703125 C 32.382812 -38.085938 31.640625 -37.328125 30.671875 -37.421875 C 29.703125 -37.523438 28.550781 -37.921875 27.21875 -38.609375 C 26.25 -39.128906 25.175781 -39.613281 24 -40.0625 C 22.832031 -40.507812 21.640625 -40.609375 20.421875 -40.359375 C 16.953125 -39.835938 14.066406 -37.960938 11.765625 -34.734375 C 9.859375 -32.066406 8.570312 -29.09375 7.90625 -25.8125 C 7.238281 -22.539062 7.492188 -19.613281 8.671875 -17.03125 C 10.078125 -14.363281 12.382812 -12.847656 15.59375 -12.484375 C 18.8125 -12.117188 22.460938 -12.488281 26.546875 -13.59375 C 30.628906 -14.707031 34.707031 -16.242188 38.78125 -18.203125 C 42.863281 -20.171875 46.488281 -22.175781 49.65625 -24.21875 C 52.832031 -26.257812 55.03125 -28.046875 56.25 -29.578125 Z M 56.25 -29.578125 "/></g></g></g><g fill="#000000" fill-opacity="1"><g transform="translate(310.529629, 474.474931)"><g><path d="M 38.671875 -29.03125 C 39.429688 -30.601562 39.953125 -31.328125 40.234375 -31.203125 C 40.523438 -31.085938 40.597656 -30.453125 40.453125 -29.296875 C 40.316406 -28.148438 40.066406 -26.847656 39.703125 -25.390625 C 39.171875 -23.171875 38.257812 -20.59375 36.96875 -17.65625 C 35.675781 -14.726562 34.242188 -12.078125 32.671875 -9.703125 C 30.328125 -6.390625 27.425781 -3.894531 23.96875 -2.21875 C 20.507812 -0.539062 17.375 -0.125 14.5625 -0.96875 C 11.757812 -1.820312 10.140625 -4.46875 9.703125 -8.90625 C 9.617188 -12.625 9.941406 -16.707031 10.671875 -21.15625 C 10.910156 -23.007812 11.171875 -24.828125 11.453125 -26.609375 C 11.453125 -27.253906 11.289062 -27.75 10.96875 -28.09375 C 10.644531 -28.4375 10.222656 -28.566406 9.703125 -28.484375 C 9.335938 -28.484375 8.929688 -28.484375 8.484375 -28.484375 C 6.265625 -28.117188 4.003906 -28.160156 1.703125 -28.609375 C -1.046875 -29.410156 -2.640625 -30.769531 -3.078125 -32.6875 C -3.523438 -34.613281 -3.488281 -37.132812 -2.96875 -40.25 C -2.6875 -42.46875 -1.859375 -44.128906 -0.484375 -45.234375 C 0.890625 -46.347656 2.503906 -46.804688 4.359375 -46.609375 C 6.953125 -46.367188 8.207031 -45.378906 8.125 -43.640625 C 8.039062 -41.898438 7.554688 -40.039062 6.671875 -38.0625 C 5.859375 -36.40625 5.429688 -35.019531 5.390625 -33.90625 C 5.347656 -32.800781 6.300781 -32.410156 8.25 -32.734375 C 8.6875 -32.847656 9.171875 -32.988281 9.703125 -33.15625 C 10.421875 -33.4375 11.242188 -33.6875 12.171875 -33.90625 C 13.109375 -34.132812 14.320312 -34.1875 15.8125 -34.0625 C 17.59375 -33.976562 18.773438 -33.160156 19.359375 -31.609375 C 19.953125 -30.054688 20.207031 -28.109375 20.125 -25.765625 C 20.039062 -23.421875 19.816406 -21.035156 19.453125 -18.609375 C 19.003906 -15.578125 18.78125 -12.976562 18.78125 -10.8125 C 18.78125 -8.65625 19.410156 -7.394531 20.671875 -7.03125 C 22.328125 -6.582031 24.800781 -8.085938 28.09375 -11.546875 C 31.382812 -15.003906 34.910156 -20.832031 38.671875 -29.03125 Z M 38.671875 -29.03125 "/></g></g></g><g fill="#000000" fill-opacity="1"><g transform="translate(347.618755, 474.474931)"><g><path d="M 58.421875 -29.28125 C 59.316406 -29.800781 60.1875 -30.203125 61.03125 -30.484375 C 61.882812 -30.765625 62.441406 -30.742188 62.703125 -30.421875 C 62.960938 -30.097656 62.609375 -29.375 61.640625 -28.25 C 58.609375 -24.769531 54.976562 -21.582031 50.75 -18.6875 C 46.53125 -15.800781 42.203125 -13.367188 37.765625 -11.390625 C 34.285156 -9.816406 30.613281 -8.566406 26.75 -7.640625 C 22.894531 -6.710938 19.078125 -6.507812 15.296875 -7.03125 C 11.523438 -7.550781 8.082031 -9.226562 4.96875 -12.0625 C 0.238281 -16.425781 -1.71875 -21.757812 -0.90625 -28.0625 C -0.21875 -33.070312 1.726562 -37.320312 4.9375 -40.8125 C 8.15625 -44.3125 12.207031 -46.6875 17.09375 -47.9375 C 21.175781 -48.832031 25.253906 -48.9375 29.328125 -48.25 C 31.191406 -47.957031 32.890625 -47.328125 34.421875 -46.359375 C 35.835938 -45.273438 36.613281 -44.003906 36.75 -42.546875 C 36.894531 -41.085938 36.34375 -39.691406 35.09375 -38.359375 C 32.507812 -36.054688 29.519531 -34.6875 26.125 -34.25 C 22.320312 -33.601562 18.503906 -33.195312 14.671875 -33.03125 C 12.804688 -33.03125 11.5 -32.644531 10.75 -31.875 C 10.007812 -31.113281 9.578125 -29.800781 9.453125 -27.9375 C 8.847656 -22.882812 10.460938 -18.765625 14.296875 -15.578125 C 16.679688 -13.679688 19.582031 -12.875 23 -13.15625 C 26.414062 -13.4375 30.039062 -14.351562 33.875 -15.90625 C 37.71875 -17.46875 41.476562 -19.285156 45.15625 -21.359375 C 48.832031 -23.441406 52.144531 -25.414062 55.09375 -27.28125 C 56.34375 -28.082031 57.453125 -28.75 58.421875 -29.28125 Z M 16.296875 -40.0625 C 16.296875 -39.976562 16.238281 -39.9375 16.125 -39.9375 C 15.957031 -39.78125 15.742188 -39.585938 15.484375 -39.359375 C 15.222656 -39.140625 14.976562 -38.914062 14.75 -38.6875 C 14.53125 -38.46875 14.421875 -38.320312 14.421875 -38.25 C 14.503906 -37.957031 15.234375 -37.882812 16.609375 -38.03125 C 17.984375 -38.175781 19.5 -38.421875 21.15625 -38.765625 C 22.8125 -39.109375 24.191406 -39.570312 25.296875 -40.15625 C 26.410156 -40.738281 26.742188 -41.4375 26.296875 -42.25 C 26.097656 -42.488281 25.847656 -42.695312 25.546875 -42.875 C 25.242188 -43.0625 24.910156 -43.195312 24.546875 -43.28125 C 22.929688 -43.28125 21.457031 -42.960938 20.125 -42.328125 C 18.789062 -41.703125 17.515625 -40.945312 16.296875 -40.0625 Z M 16.296875 -40.0625 "/></g></g></g><g fill="#000000" fill-opacity="1"><g transform="translate(406.282624, 474.474931)"><g><path d="M 44.484375 -29.15625 C 46.703125 -31.289062 47.660156 -31.820312 47.359375 -30.75 C 47.054688 -29.6875 45.832031 -27.75 43.6875 -24.9375 C 41.550781 -22.132812 38.882812 -19.09375 35.6875 -15.8125 C 32.5 -12.539062 29.128906 -9.703125 25.578125 -7.296875 C 22.023438 -4.898438 18.648438 -3.597656 15.453125 -3.390625 C 11.535156 -3.390625 8.394531 -4.550781 6.03125 -6.875 C 3.664062 -9.195312 1.976562 -12.265625 0.96875 -16.078125 C -0.0390625 -19.898438 -0.460938 -24.035156 -0.296875 -28.484375 C -0.0976562 -33.453125 0.0820312 -38.421875 0.25 -43.390625 C 0.320312 -45.898438 0.398438 -48.347656 0.484375 -50.734375 C 0.679688 -54.734375 0.820312 -58.734375 0.90625 -62.734375 C 0.988281 -63.984375 0.785156 -65.03125 0.296875 -65.875 C -0.179688 -66.726562 -1.046875 -67.195312 -2.296875 -67.28125 C -3.710938 -67.351562 -5.492188 -67.390625 -7.640625 -67.390625 C -9.492188 -67.390625 -11.085938 -67.390625 -12.421875 -67.390625 C -14.285156 -67.597656 -15.53125 -68.09375 -16.15625 -68.875 C -16.78125 -69.664062 -16.285156 -70.46875 -14.671875 -71.28125 C -13.535156 -71.71875 -12.171875 -71.957031 -10.578125 -72 C -8.984375 -72.039062 -7.414062 -72.019531 -5.875 -71.9375 C -4.90625 -71.863281 -4.054688 -71.828125 -3.328125 -71.828125 C -0.941406 -71.828125 0.507812 -72.195312 1.03125 -72.9375 C 1.550781 -73.6875 1.875 -75.171875 2 -77.390625 C 2.164062 -79.734375 2.285156 -82.097656 2.359375 -84.484375 C 2.441406 -85.734375 2.546875 -86.988281 2.671875 -88.25 C 2.671875 -90.101562 3.15625 -91.78125 4.125 -93.28125 C 5.175781 -94.6875 6.507812 -95.226562 8.125 -94.90625 C 9.539062 -94.539062 10.328125 -93.65625 10.484375 -92.25 C 10.609375 -89.90625 10.671875 -87.539062 10.671875 -85.15625 C 10.742188 -83.820312 10.742188 -82.488281 10.671875 -81.15625 C 10.671875 -79.738281 10.707031 -78.265625 10.78125 -76.734375 C 10.707031 -74.628906 10.953125 -73.300781 11.515625 -72.75 C 12.078125 -72.207031 13.472656 -71.9375 15.703125 -71.9375 C 19.335938 -71.9375 22.929688 -71.9375 26.484375 -71.9375 C 28.097656 -71.9375 32.90625 -72.046875 40.90625 -72.265625 C 48.90625 -72.492188 53.21875 -71.847656 53.84375 -70.328125 C 54.476562 -68.816406 49.421875 -67.941406 38.671875 -67.703125 C 32.160156 -67.335938 27.128906 -67.15625 23.578125 -67.15625 C 21.191406 -67.238281 19.050781 -67.28125 17.15625 -67.28125 C 13.957031 -67.28125 11.984375 -66.722656 11.234375 -65.609375 C 10.492188 -64.492188 10.164062 -62.257812 10.25 -58.90625 C 10.164062 -56.039062 10.019531 -52.566406 9.8125 -48.484375 C 9.289062 -40.117188 9.03125 -31.59375 9.03125 -22.90625 C 9.226562 -16.925781 10.296875 -13.046875 12.234375 -11.265625 C 14.179688 -9.492188 16.707031 -9.160156 19.8125 -10.265625 C 22.925781 -11.378906 26.289062 -13.359375 29.90625 -16.203125 C 33.519531 -19.054688 37.109375 -22.117188 40.671875 -25.390625 C 41.429688 -26.398438 42.359375 -27.351562 43.453125 -28.25 C 43.816406 -28.570312 44.160156 -28.875 44.484375 -29.15625 Z M 44.484375 -29.15625 "/></g></g></g></g></g></svg>