<svg xmlns="http://www.w3.org/2000/svg" xmlns:xlink="http://www.w3.org/1999/xlink" width="512" zoomAndPan="magnify" viewBox="0 0 384 383.999986" height="512" preserveAspectRatio="xMidYMid meet" version="1.0"><defs><g/><clipPath id="41f0777e19"><path d="M 0.339844 28.132812 L 373.089844 28.132812 L 373.089844 384 L 0.339844 384 Z M 0.339844 28.132812 " clip-rule="nonzero"/></clipPath><clipPath id="2e3e7a50d3"><path d="M 0.320312 57 L 233.359375 57 L 233.359375 284 L 0.320312 284 Z M 0.320312 57 " clip-rule="nonzero"/></clipPath><clipPath id="18b71e1927"><rect x="0" width="234" y="0" height="332"/></clipPath><clipPath id="163fcdb96d"><rect x="0" width="220" y="0" height="288"/></clipPath></defs><path fill="#000000" d="M 181.117188 343.636719 C 99.539062 343.636719 33.414062 277.507812 33.414062 195.933594 C 33.414062 114.359375 99.539062 48.230469 181.117188 48.230469 C 262.691406 48.230469 328.824219 114.359375 328.824219 195.933594 C 328.824219 277.507812 262.691406 343.636719 181.117188 343.636719 " fill-opacity="1" fill-rule="nonzero"/><path fill="#000000" d="M 89.871094 348.148438 C 73.261719 339.289062 58.402344 327.476562 46.027344 313.289062 C 34.089844 299.710938 24.191406 284.476562 16.640625 268.050781 L 21.3125 277.347656 C 22.117188 278.882812 22.847656 280.457031 23.722656 281.945312 L 26.476562 286.351562 L 32.042969 295.105469 C 33.988281 297.953125 36.203125 300.617188 38.289062 303.367188 C 35.105469 299.496094 32.234375 295.378906 29.703125 291.054688 C 27.292969 286.808594 24.628906 282.8125 22.785156 278.371094 C 20.859375 273.972656 18.996094 269.539062 17.238281 264.960938 C 15.820312 260.246094 14.464844 255.394531 13.144531 250.339844 C 15.296875 252.941406 17.085938 257.503906 18.878906 261.667969 C 20.609375 265.851562 22.984375 269.347656 24.984375 270.167969 C 35.535156 292.378906 50.027344 312.488281 67.769531 329.523438 C 85.710938 346.769531 107.035156 360.121094 130.394531 368.730469 C 125.105469 369.253906 120.6875 368.050781 116.695312 366.777344 C 112.945312 365.539062 109.445312 363.640625 106.367188 361.167969 C 100.382812 356.597656 95.671875 351.773438 89.871094 348.148438 " fill-opacity="1" fill-rule="nonzero"/><path fill="#000000" d="M 7.984375 195.933594 C 8.277344 200.835938 8.566406 205.601562 8.847656 210.316406 C 8.171875 205.550781 7.882812 200.746094 7.984375 195.933594 " fill-opacity="1" fill-rule="nonzero"/><path fill="#000000" d="M 325.113281 231.386719 C 325.445312 228.996094 326.0625 226.671875 326.214844 224.277344 C 326.421875 221.890625 326.660156 219.539062 326.960938 217.246094 C 326.953125 219.617188 326.820312 221.992188 326.558594 224.355469 C 326.214844 226.726562 325.734375 229.074219 325.113281 231.386719 " fill-opacity="1" fill-rule="nonzero"/><path fill="#000000" d="M 154.117188 354.167969 C 156.902344 354.023438 159.660156 354.007812 162.441406 354.074219 C 183.429688 357.292969 204.847656 356.507812 225.546875 351.753906 C 219.761719 352.960938 214.035156 354.820312 208.023438 355.601562 L 199.042969 357.160156 C 196.03125 357.652344 192.976562 357.703125 189.929688 357.964844 C 186.886719 358.152344 183.832031 358.371094 180.785156 358.433594 C 177.738281 358.277344 174.703125 358.066406 171.683594 357.792969 C 168.679688 357.597656 165.691406 357.1875 162.742188 356.566406 C 159.816406 355.855469 156.929688 355.0625 154.117188 354.167969 " fill-opacity="1" fill-rule="nonzero"/><path fill="#000000" d="M 134.15625 342.710938 C 114.574219 336.847656 96.539062 325.0625 84.234375 310.421875 C 97.023438 324.507812 114.554688 335.890625 134.15625 342.710938 " fill-opacity="1" fill-rule="nonzero"/><path fill="#000000" d="M 262.992188 119.6875 C 262.617188 120.097656 262.058594 120.289062 261.511719 120.199219 C 261.109375 119.980469 260.65625 119.863281 260.199219 119.855469 L 258.941406 117.996094 L 257.488281 116.308594 L 254.613281 112.871094 C 253.632812 111.738281 252.746094 110.488281 251.699219 109.40625 L 248.488281 106.246094 C 249.863281 106.878906 251.6875 106.816406 252.96875 107.691406 C 255.234375 110.226562 256.035156 112.367188 257.222656 114.160156 C 258.761719 116.367188 260.722656 118.246094 262.992188 119.6875 " fill-opacity="1" fill-rule="nonzero"/><path fill="#000000" d="M 323.988281 236.625 L 324.171875 237.203125 C 323.96875 238.835938 323.652344 240.453125 323.21875 242.042969 C 323.09375 242.207031 322.976562 242.355469 322.835938 242.539062 C 323.308594 240.597656 323.605469 238.605469 323.988281 236.625 " fill-opacity="1" fill-rule="nonzero"/><path fill="#000000" d="M 267.816406 125.589844 C 266.988281 126.324219 266.300781 127.203125 265.792969 128.1875 C 264.175781 125.28125 262.050781 122.753906 260.234375 119.914062 C 260.652344 120.050781 261.082031 120.144531 261.511719 120.199219 C 263.546875 121.355469 265.152344 124.570312 267.816406 125.589844 " fill-opacity="1" fill-rule="nonzero"/><path fill="#000000" d="M 283.792969 196.433594 C 283.714844 198.40625 285.929688 200.265625 286.460938 201.261719 C 284.964844 206.527344 282.371094 211.375 280.578125 217.097656 C 280.902344 218.113281 280.449219 220.011719 281.132812 222.125 C 279.988281 222.957031 278.925781 223.890625 277.949219 224.917969 C 282.105469 211.976562 283.886719 198.390625 283.207031 184.8125 C 283.644531 188.671875 283.835938 192.554688 283.792969 196.433594 " fill-opacity="1" fill-rule="nonzero"/><g clip-path="url(#41f0777e19)"><path fill="#000000" d="M 46.140625 192.492188 C 46.085938 189.566406 46.144531 186.582031 46.277344 183.558594 C 46.574219 180.511719 47.054688 177.488281 47.707031 174.5 C 48.566406 168.371094 50.972656 162.503906 52.644531 156.546875 C 53.78125 153.65625 54.90625 150.777344 56.03125 147.90625 L 57.59375 143.582031 C 58.234375 142.199219 58.847656 140.8125 59.4375 139.417969 C 60.632812 136.640625 61.589844 133.769531 62.609375 130.960938 C 63.792969 128.222656 64.804688 125.417969 65.644531 122.5625 C 63.53125 125.214844 61.160156 127.957031 59.070312 130.972656 C 57.109375 134.097656 55.109375 137.289062 53.113281 140.46875 C 49.652344 147.117188 46.015625 153.839844 43.578125 160.300781 C 40.597656 166.621094 38.714844 172.558594 36.382812 177.074219 C 33.910156 181.574219 32.117188 184.8125 29.472656 185.75 C 26.921875 186.703125 25.714844 184.59375 25.375 180.414062 C 25.386719 176.277344 26.410156 170.105469 28.179688 163.253906 C 32.015625 149.457031 40.46875 133.960938 45.777344 123.421875 C 43.460938 125.789062 43.460938 125.789062 41.148438 128.148438 C 43.558594 125.78125 45.609375 123.339844 46.132812 120.425781 C 43.496094 122.566406 40.785156 126.441406 37.738281 129.863281 C 34.644531 133.269531 32.058594 136.625 29.90625 137.765625 C 29.875 135.644531 29.753906 133.457031 29.828125 131.320312 C 26.507812 134.554688 23.324219 139.035156 20.054688 144.125 C 17.003906 149.707031 14.242188 155.445312 11.78125 161.3125 C 9.707031 167.476562 7.378906 173.753906 5.496094 179.695312 C 4.03125 185.226562 2.1875 190.65625 -0.0273438 195.933594 C 6.097656 173.050781 14.214844 149.867188 26.609375 128.101562 C 39.136719 105.683594 55.574219 85.695312 75.144531 69.074219 C 95.75 52.027344 119.839844 39.703125 145.722656 32.976562 C 171.667969 26.457031 198.8125 26.339844 224.8125 32.632812 C 282.121094 44.238281 332.546875 80.484375 361.289062 131.542969 C 362.921875 134.726562 364.257812 138.046875 365.285156 141.472656 C 366.488281 145.582031 367.726562 150.320312 368.90625 155.316406 C 370.703125 165.40625 372.199219 176.585938 371.960938 185.910156 C 373.992188 202.324219 373.023438 218.96875 371.136719 235.625 L 368.921875 248.019531 L 367.769531 254.238281 L 366.152344 260.34375 L 362.871094 272.628906 L 358.667969 284.660156 L 356.023438 290.917969 L 352.855469 296.902344 C 350.671875 300.851562 348.554688 304.863281 346.136719 308.671875 C 341 316.066406 335.9375 323.59375 329.707031 330.140625 C 326.628906 333.429688 323.8125 336.996094 320.386719 339.945312 C 317.0625 343 313.703125 346.019531 310.300781 348.996094 C 306.898438 351.976562 303.109375 354.492188 299.480469 357.195312 C 295.863281 359.941406 292.070312 362.449219 288.132812 364.710938 C 284.191406 366.980469 280.242188 369.253906 276.289062 371.527344 C 272.140625 373.441406 267.984375 375.363281 263.8125 377.285156 C 259.636719 379.222656 255.34375 380.894531 250.960938 382.300781 C 246.574219 383.734375 242.269531 385.484375 237.753906 386.582031 C 233.238281 387.6875 228.707031 388.792969 224.160156 389.902344 C 219.628906 391.101562 214.929688 391.488281 210.28125 392.285156 C 200.96875 393.996094 191.464844 394.125 181.867188 394.765625 C 174.179688 394.738281 165.226562 391.769531 163.140625 388.886719 C 161.011719 385.875 165.484375 383.375 183.171875 382.324219 C 212.277344 378.710938 240.503906 369.917969 266.515625 356.355469 C 264.867188 360.523438 251.621094 365.34375 246.125 369.351562 C 267.207031 363.234375 283.917969 354.527344 300.570312 340.609375 L 292.019531 347.308594 C 289.210938 349.597656 286.269531 351.722656 283.222656 353.683594 C 277.078125 357.535156 271.066406 361.65625 264.449219 364.730469 C 280.542969 356.355469 296.664062 345.691406 310.484375 331.902344 C 324.632812 318.144531 336.34375 302.089844 345.132812 284.421875 C 346.726562 281.210938 348.675781 278.1875 350.941406 275.410156 C 353.160156 272.527344 355.742188 269.710938 357.691406 266.363281 C 359.921875 262.886719 361.734375 259.167969 363.089844 255.269531 C 364.546875 251.132812 364.8125 246.230469 364.445312 240.824219 C 356.535156 265.699219 343.640625 288.703125 326.554688 308.4375 C 309.683594 327.996094 289.324219 344.246094 266.515625 356.355469 C 266.570312 356.257812 266.613281 356.148438 266.640625 356.035156 C 246.621094 367.230469 226.210938 373.0625 204.378906 376.011719 C 211.101562 374.601562 217.914062 373.171875 223.855469 371.921875 L 217.917969 372.902344 C 215.929688 373.136719 213.925781 373.253906 211.9375 373.433594 C 207.972656 373.773438 204.015625 374.109375 200.066406 374.449219 C 196.117188 374.566406 192.175781 374.5 188.253906 374.539062 C 184.34375 374.660156 180.425781 374.542969 176.527344 374.183594 L 164.875 373.214844 C 161 372.882812 157.179688 371.984375 153.34375 371.378906 C 145.628906 370.308594 138.179688 367.984375 130.707031 365.921875 C 152.480469 369.769531 174.722656 370.28125 196.652344 367.441406 C 218.832031 364.632812 240.34375 357.9375 260.203125 347.667969 C 280.074219 337.367188 297.738281 323.273438 312.1875 306.179688 C 326.328125 289.484375 336.714844 269.945312 342.640625 248.886719 C 340.996094 251.546875 339.496094 254.292969 338.148438 257.113281 C 337.484375 258.554688 336.820312 260.015625 336.140625 261.488281 C 335.390625 262.925781 334.636719 264.378906 333.871094 265.839844 C 332.390625 268.78125 330.960938 271.796875 329.546875 274.847656 C 328.09375 277.867188 326.304688 280.722656 324.699219 283.660156 C 318.277344 295.390625 309.808594 305.710938 300.558594 310.910156 C 327.097656 283.765625 344.269531 247.292969 348.578125 208.046875 C 348.804688 211 349.078125 213.898438 349.113281 216.816406 C 350.046875 213.816406 350.6875 210.738281 351.027344 207.613281 C 351.460938 204.492188 351.800781 201.328125 352.066406 198.144531 C 352.429688 191.777344 351.828125 185.332031 351.453125 178.921875 C 350.449219 172.558594 349.433594 166.183594 348.054688 159.964844 C 347.242188 156.882812 346.425781 153.8125 345.613281 150.757812 C 344.835938 147.699219 344.128906 144.640625 343.0625 141.710938 C 342.394531 139.578125 341.734375 137.46875 341.066406 135.324219 C 341.722656 137.4375 342.394531 139.574219 343.0625 141.710938 C 349.148438 163.265625 351.023438 185.789062 348.578125 208.046875 C 348.132812 198 348.007812 187.535156 347.125 174.898438 C 346.734375 178.402344 346.09375 182.601562 345.714844 187.117188 C 345.328125 191.628906 345.230469 196.464844 344.347656 201.261719 L 343.738281 210.726562 C 343.585938 213.878906 342.828125 216.976562 342.382812 220.09375 C 341.832031 223.199219 341.375 226.316406 340.71875 229.386719 C 339.871094 232.410156 339.03125 235.429688 338.1875 238.445312 C 342.949219 219.707031 343.234375 200.207031 339.117188 183.472656 C 338.902344 208.925781 334.621094 235.09375 323.421875 257.730469 C 328.230469 244.828125 332.175781 231.546875 333.367188 217.894531 C 337.785156 194.859375 336.765625 171.117188 330.382812 148.546875 C 330.753906 149.378906 331.066406 150.230469 331.332031 151.101562 C 330.851562 149.359375 330.25 147.652344 329.53125 145.992188 C 327.964844 141.621094 326.734375 137.089844 324.816406 132.820312 C 322.835938 128.582031 320.988281 124.246094 318.8125 120.074219 C 316.558594 116.539062 314.105469 113.128906 311.460938 109.871094 C 308.675781 106.792969 305.710938 103.890625 302.574219 101.175781 C 301.738281 100.089844 300.902344 99.007812 300.074219 97.933594 C 302.339844 99.40625 304.011719 99.75 301.199219 95.492188 C 298.09375 90.871094 294.519531 86.585938 290.535156 82.699219 C 288.441406 80.789062 286.285156 78.902344 284.09375 77.023438 C 282.988281 76.101562 281.925781 75.113281 280.753906 74.246094 L 277.160156 71.726562 C 274.765625 70.035156 272.351562 68.332031 269.917969 66.613281 C 267.484375 64.898438 264.828125 63.484375 262.308594 61.808594 C 259.722656 60.242188 257.289062 58.34375 254.625 56.804688 C 251.96875 55.242188 249.324219 53.570312 246.695312 51.753906 C 243.507812 49.613281 240.003906 47.988281 236.3125 46.9375 C 232.003906 45.375 227.558594 44.246094 223.03125 43.550781 C 220.695312 42.191406 219.238281 42.289062 217.890625 42.699219 C 215.839844 42.410156 213.8125 41.929688 211.726562 41.785156 C 206.746094 40.976562 201.722656 40.523438 196.679688 40.425781 C 201.546875 40.964844 206.609375 41.429688 211.726562 41.785156 C 213.617188 42.015625 215.4375 42.566406 217.289062 42.890625 C 215.496094 43.648438 213.515625 43.851562 211.605469 43.46875 C 245.429688 51.054688 277 70.707031 300.074219 97.9375 C 298.027344 96.855469 295.398438 95.160156 294.167969 94.59375 C 297.136719 96.566406 299.949219 98.769531 302.574219 101.175781 C 306.253906 105.632812 309.65625 110.304688 312.761719 115.171875 L 317.503906 122.460938 L 321.644531 130.117188 C 319.835938 127.410156 317.679688 124.957031 315.234375 122.804688 C 322.726562 137.316406 328.167969 152.796875 331.398438 168.804688 C 334.828125 184.839844 335.089844 201.480469 333.367188 217.894531 C 332.507812 221.683594 332.078125 225.539062 330.855469 229.21875 L 327.464844 240.25 C 326.203125 243.871094 324.570312 247.355469 323.140625 250.886719 C 321.71875 254.414062 320.046875 257.84375 318.140625 261.136719 C 314.808594 267.972656 310.34375 274.113281 306.210938 280.378906 C 301.445312 286.210938 296.949219 292.199219 291.519531 297.363281 C 305.117188 286.839844 316.050781 273.261719 323.421875 257.730469 C 314.460938 279.730469 300.402344 299.296875 282.414062 314.816406 C 264.414062 330.289062 242.667969 340.765625 219.347656 345.195312 C 221.167969 343.8125 223.15625 342.453125 225.167969 341.101562 C 227.171875 339.742188 229.078125 338.042969 230.910156 336.542969 C 234.519531 333.378906 237.722656 330.628906 238.933594 327.296875 C 237.835938 325.765625 224.601562 329.417969 231.644531 325.554688 C 243.753906 317.296875 254.007812 311.15625 261.324219 304.25 C 263.167969 302.570312 264.878906 300.949219 266.390625 299.320312 C 267.703125 297.625 268.890625 295.828125 269.925781 293.949219 C 272.003906 290.523438 272.855469 286.496094 272.34375 282.523438 C 272.0625 281.558594 270.0625 281.683594 267.402344 282.1875 C 264.5625 282.515625 261.003906 283.136719 257.761719 283.558594 C 256.25 283.789062 254.726562 283.921875 253.195312 283.96875 C 251.957031 283.957031 250.726562 283.820312 249.515625 283.554688 C 247.589844 283.070312 246.832031 282.101562 248.074219 280.417969 C 249.496094 278.984375 250.835938 277.472656 252.082031 275.886719 C 253.527344 274.097656 255.382812 272.375 257.035156 270.191406 C 258.648438 267.976562 260.40625 265.667969 262.296875 263.324219 C 263.953125 260.789062 265.578125 258.105469 267.382812 255.488281 C 269.707031 252.46875 271.882812 249.335938 273.894531 246.101562 C 274.3125 245.769531 274.03125 244.671875 273.753906 243.375 C 278.386719 233.140625 281.859375 222.414062 284.101562 211.398438 C 284.925781 208.839844 285.5 206.207031 285.824219 203.53125 C 286.539062 202.199219 287.535156 201.027344 288.738281 200.101562 C 288.046875 198.410156 287.453125 196.683594 286.949219 194.921875 C 286.957031 191.316406 287.246094 187.671875 287.140625 184.066406 C 286.726562 180.507812 286.597656 176.890625 286.074219 173.347656 L 286.183594 167.148438 C 286.332031 165.0625 286.257812 162.964844 285.964844 160.894531 C 285.238281 161.234375 284.449219 162.164062 283.4375 161.703125 L 281.375 155.277344 C 280.804688 153.082031 279.601562 151.148438 278.773438 149.058594 C 277.929688 146.972656 276.976562 144.933594 275.90625 142.953125 L 272.527344 137.105469 C 272.097656 135.207031 271.539062 133.445312 271.105469 131.660156 C 270.695312 129.835938 270.445312 127.976562 270.355469 126.109375 C 267.140625 124.875 264.136719 123.136719 261.457031 120.972656 C 258.660156 118.398438 255.167969 115.902344 251.988281 112.796875 C 250.328125 111.269531 248.589844 109.832031 246.777344 108.492188 C 244.957031 107.121094 243.320312 105.460938 241.402344 104.269531 C 237.542969 101.957031 234.046875 99.164062 230.234375 97.933594 L 230.136719 98.175781 L 224.804688 95.5 C 222.992188 94.667969 221.136719 93.929688 219.25 93.28125 L 213.636719 91.089844 L 207.785156 89.511719 C 206.632812 88.484375 205.574219 87.363281 204.605469 86.160156 C 202.378906 86.828125 200.230469 86.753906 199.148438 87.140625 C 192.914062 84.929688 187.410156 83.472656 181.691406 81.5625 C 180.644531 82.070312 178.738281 84.609375 176.59375 84.753906 C 174.425781 84.75 172.292969 84.800781 170.191406 84.882812 C 168.105469 85.105469 166.089844 85.597656 164.085938 85.960938 C 161.726562 86.289062 159.25 86.175781 156.90625 86.785156 L 149.707031 88.148438 C 133.25 91.558594 117.652344 98.273438 103.875 107.890625 C 102.863281 107.472656 101.945312 106.855469 101.175781 106.078125 C 100.238281 109.03125 96.441406 110.472656 95.503906 112.933594 C 95.589844 112.371094 95.371094 111.800781 94.933594 111.429688 C 91.046875 118.664062 87.761719 117.632812 82.789062 123.03125 C 81.839844 124.371094 81.839844 126.246094 81.148438 127.691406 C 80.59375 128.261719 80.074219 128.867188 79.601562 129.507812 C 77.601562 130.519531 75.761719 131.824219 74.152344 133.382812 C 72.550781 134.832031 71.226562 136.546875 70.230469 138.457031 C 69.207031 140.34375 68.300781 142.324219 67.382812 144.34375 C 66.917969 145.355469 66.453125 146.375 65.988281 147.410156 C 65.609375 148.476562 65.226562 149.5625 64.835938 150.65625 C 62.648438 154.785156 60.246094 158.921875 58.664062 163.390625 L 55.917969 170.039062 L 53.878906 176.949219 C 51.554688 184.277344 48.699219 187.039062 46.140625 192.492188 " fill-opacity="1" fill-rule="nonzero"/></g><path fill="#000000" d="M 246.917969 104.679688 C 241.160156 99.082031 234.851562 94.089844 228.089844 89.769531 C 235.761719 93.457031 243.714844 96.007812 246.917969 104.679688 " fill-opacity="1" fill-rule="nonzero"/><path fill="#000000" d="M 241.757812 281.136719 C 238.347656 281.324219 234.65625 281.394531 231.332031 282.34375 L 237.109375 279.042969 L 242.484375 275.101562 C 243.375 274.441406 244.335938 273.859375 245.1875 273.144531 L 247.660156 270.898438 C 249.289062 269.378906 251.074219 268.019531 252.644531 266.429688 C 255.566406 263.054688 258.921875 260.023438 261.417969 256.269531 C 262.699219 254.425781 264.359375 252.828125 265.410156 250.828125 C 266.574219 248.894531 267.769531 246.980469 269 245.078125 L 269.238281 245.1875 C 268.378906 246.789062 267.410156 248.453125 266.390625 250.160156 C 265.859375 250.996094 265.398438 251.902344 264.785156 252.71875 C 264.136719 253.511719 263.476562 254.3125 262.816406 255.121094 C 261.515625 256.742188 260.199219 258.390625 258.890625 260.027344 C 257.375 261.5 255.910156 262.988281 254.527344 264.5 C 253.851562 265.265625 253.183594 266.023438 252.523438 266.773438 C 251.855469 267.519531 251.082031 268.136719 250.421875 268.828125 C 249.09375 270.132812 247.863281 271.523438 246.734375 272.992188 C 244.550781 275.808594 242.546875 278.199219 241.757812 281.136719 " fill-opacity="1" fill-rule="nonzero"/><path fill="#000000" d="M 261.511719 120.199219 C 261.082031 120.144531 260.652344 120.050781 260.234375 119.917969 L 260.195312 119.855469 C 260.65625 119.863281 261.109375 119.980469 261.511719 120.199219 " fill-opacity="1" fill-rule="nonzero"/><path fill="#000000" d="M 221.875 338.054688 C 221.039062 338.246094 220.226562 338.429688 219.402344 338.617188 C 225.574219 336.796875 231.292969 333.742188 237.195312 331.347656 C 234.96875 332.632812 232.535156 333.84375 229.972656 335.003906 C 227.375 336.273438 224.660156 337.292969 221.875 338.054688 " fill-opacity="1" fill-rule="nonzero"/><path fill="#000000" d="M 153.902344 338.539062 C 141.257812 336.277344 128.554688 333.027344 116.835938 327.351562 C 102.207031 319.269531 89.59375 308.285156 80.894531 295.570312 C 90.667969 305.863281 101.742188 314.835938 113.835938 322.257812 C 126.34375 329.574219 139.839844 335.054688 153.902344 338.539062 " fill-opacity="1" fill-rule="nonzero"/><path fill="#000000" d="M 208.992188 293.839844 C 205.136719 293.941406 201.28125 293.683594 197.472656 293.074219 C 201.195312 293 204.691406 291.910156 208.296875 291.277344 C 207.839844 292.195312 208.691406 293.085938 208.992188 293.839844 " fill-opacity="1" fill-rule="nonzero"/><path fill="#000000" d="M 268.292969 312.082031 L 265.230469 314.453125 C 267.40625 311.910156 269.59375 309.363281 271.789062 306.800781 C 271.183594 307.921875 269.414062 310.238281 268.292969 312.082031 " fill-opacity="1" fill-rule="nonzero"/><path fill="#000000" d="M 169.78125 291.574219 C 172.339844 292.339844 175.015625 292.371094 177.628906 292.867188 C 175.945312 293.261719 174.3125 293.847656 172.765625 294.621094 C 171.925781 293.460938 170.921875 292.4375 169.78125 291.574219 " fill-opacity="1" fill-rule="nonzero"/><path fill="#000000" d="M 131.394531 278.71875 C 129.882812 277.722656 128.339844 276.832031 126.921875 275.808594 C 125.613281 274.648438 124.324219 273.5 123.0625 272.382812 C 124.84375 273.457031 126.484375 274.78125 128.332031 275.785156 C 130.210938 276.738281 132.0625 277.726562 133.878906 278.753906 C 132.671875 278.949219 131.65625 279.160156 131.394531 278.71875 " fill-opacity="1" fill-rule="nonzero"/><g transform="matrix(1, 0, 0, 1, 46, 4)"><g clip-path="url(#18b71e1927)"><g clip-path="url(#2e3e7a50d3)"><g fill="#ffffff" fill-opacity="1"><g transform="translate(0.390679, 229.442561)"><g><path d="M 228.40625 -166.921875 C 231.300781 -165.066406 232.273438 -162.46875 231.328125 -159.125 C 230.722656 -157.507812 229.929688 -155.992188 228.953125 -154.578125 C 227.335938 -152.285156 225.414062 -150.242188 223.1875 -148.453125 C 212.800781 -139.617188 200.859375 -134.171875 187.359375 -132.109375 C 184.390625 -131.640625 181.421875 -131.117188 178.453125 -130.546875 C 177.109375 -130.242188 175.847656 -130.3125 174.671875 -130.75 C 173.921875 -131.050781 173.546875 -131.539062 173.546875 -132.21875 C 173.617188 -132.519531 173.726562 -132.8125 173.875 -133.09375 C 174.03125 -133.382812 174.207031 -133.5625 174.40625 -133.625 C 175.382812 -134.164062 176.398438 -134.539062 177.453125 -134.75 C 178.765625 -134.976562 180.09375 -135.210938 181.4375 -135.453125 C 182.414062 -135.515625 183.414062 -135.648438 184.4375 -135.859375 C 191.113281 -137.066406 197.234375 -139.296875 202.796875 -142.546875 C 208.359375 -145.804688 213.519531 -149.847656 218.28125 -154.671875 C 219.695312 -156.023438 220.773438 -157.628906 221.515625 -159.484375 C 222.328125 -161.710938 221.703125 -163.296875 219.640625 -164.234375 C 216.941406 -165.210938 214.195312 -165.738281 211.40625 -165.8125 C 207.894531 -165.8125 204.4375 -165.8125 201.03125 -165.8125 C 199.539062 -165.8125 198.054688 -165.8125 196.578125 -165.8125 C 187.734375 -165.8125 178.9375 -165.347656 170.1875 -164.421875 C 161.4375 -163.492188 152.691406 -162.40625 143.953125 -161.15625 C 130.054688 -159.363281 116.207031 -157.203125 102.40625 -154.671875 C 102.476562 -152.816406 102.515625 -150.960938 102.515625 -149.109375 C 102.515625 -125.597656 102.515625 -102.125 102.515625 -78.6875 C 102.515625 -70.957031 102.515625 -63.226562 102.515625 -55.5 C 102.515625 -47.945312 102.515625 -40.410156 102.515625 -32.890625 C 102.515625 -11.160156 102.515625 10.578125 102.515625 32.328125 C 102.515625 38.097656 102.410156 43.882812 102.203125 49.6875 C 102.203125 52.789062 100.71875 54.085938 97.75 53.578125 C 96.269531 53.347656 95.410156 52.539062 95.171875 51.15625 C 95.171875 50.550781 95.140625 49.941406 95.078125 49.328125 C 94.835938 46.535156 94.71875 43.6875 94.71875 40.78125 C 94.65625 22.09375 94.625 3.351562 94.625 -15.4375 C 94.625 -61.375 94.625 -107.316406 94.625 -153.265625 C 94.488281 -153.160156 94.332031 -153.109375 94.15625 -153.109375 C 93.71875 -153.046875 93.316406 -152.976562 92.953125 -152.90625 C 81.953125 -150.75 71.070312 -148.1875 60.3125 -145.21875 C 49.550781 -142.25 38.941406 -138.757812 28.484375 -134.75 C 24.773438 -133.363281 21.097656 -131.8125 17.453125 -130.09375 C 16.335938 -129.582031 15.273438 -129.09375 14.265625 -128.625 C 12.242188 -127.875 10.644531 -126.539062 9.46875 -124.625 C 8.65625 -123.445312 7.429688 -122.835938 5.796875 -122.796875 C 4.160156 -122.765625 2.71875 -123.222656 1.46875 -124.171875 C 0.488281 -125.078125 0.367188 -126.054688 1.109375 -127.109375 C 1.921875 -128.210938 2.898438 -129.148438 4.046875 -129.921875 C 5.191406 -130.703125 6.40625 -131.429688 7.6875 -132.109375 C 14.0625 -135.347656 20.554688 -138.164062 27.171875 -140.5625 C 44.003906 -146.695312 61.140625 -151.671875 78.578125 -155.484375 C 83.941406 -156.597656 89.289062 -157.660156 94.625 -158.671875 C 94.6875 -159.785156 94.753906 -160.867188 94.828125 -161.921875 C 95.054688 -163.335938 95.742188 -164.320312 96.890625 -164.875 C 98.035156 -165.425781 99.316406 -165.367188 100.734375 -164.703125 C 101.785156 -164.128906 102.273438 -163.234375 102.203125 -162.015625 C 102.203125 -161.367188 102.238281 -160.710938 102.3125 -160.046875 C 115.125 -162.265625 127.992188 -164.269531 140.921875 -166.0625 C 154.335938 -167.988281 167.8125 -169.472656 181.34375 -170.515625 C 191.863281 -171.253906 202.40625 -171.351562 212.96875 -170.8125 C 216.375 -170.613281 219.75 -170.09375 223.09375 -169.25 C 225.007812 -168.8125 226.78125 -168.035156 228.40625 -166.921875 Z M 228.40625 -166.921875 "/></g></g></g></g></g></g><g transform="matrix(1, 0, 0, 1, 126, 96)"><g clip-path="url(#163fcdb96d)"><g fill="#ffffff" fill-opacity="1"><g transform="translate(1.494504, 212.628696)"><g><path d="M 203.421875 -176.625 C 212.609375 -168.195312 215.335938 -158.023438 211.609375 -146.109375 C 210.910156 -144.046875 210.046875 -142.039062 209.015625 -140.09375 C 207.109375 -136.644531 204.921875 -133.410156 202.453125 -130.390625 C 199.992188 -127.367188 197.382812 -124.476562 194.625 -121.71875 C 192.78125 -119.769531 190.617188 -119.109375 188.140625 -119.734375 C 187.453125 -119.796875 187 -120.144531 186.78125 -120.78125 C 186.65625 -121.40625 186.828125 -121.921875 187.296875 -122.328125 C 191.773438 -126.648438 195.707031 -131.445312 199.09375 -136.71875 C 201.507812 -140.226562 203.265625 -144.019531 204.359375 -148.09375 C 207.054688 -159.125 204.035156 -168.210938 195.296875 -175.359375 C 191.148438 -178.617188 186.523438 -180.90625 181.421875 -182.21875 C 176.597656 -183.5 171.753906 -184.335938 166.890625 -184.734375 C 162.035156 -185.128906 157.144531 -185.15625 152.21875 -184.8125 C 144.726562 -184.363281 137.289062 -183.488281 129.90625 -182.1875 C 122.53125 -180.894531 115.191406 -179.351562 107.890625 -177.5625 C 98.359375 -175.21875 89.007812 -172.335938 79.84375 -168.921875 C 70.675781 -165.503906 61.785156 -161.441406 53.171875 -156.734375 C 44.835938 -152.253906 37.113281 -146.878906 30 -140.609375 C 23.664062 -135.035156 18.460938 -128.519531 14.390625 -121.0625 C 9.148438 -111.15625 9.585938 -101.5 15.703125 -92.09375 C 19.585938 -86.457031 24.210938 -81.457031 29.578125 -77.09375 C 37.910156 -70.195312 46.695312 -63.992188 55.9375 -58.484375 C 63.75 -53.816406 71.539062 -49.207031 79.3125 -44.65625 C 84.476562 -41.6875 89.617188 -38.679688 94.734375 -35.640625 C 98.398438 -33.503906 101.988281 -31.300781 105.5 -29.03125 C 109.007812 -26.757812 112.425781 -24.304688 115.75 -21.671875 C 117.75 -20.015625 119.957031 -19.609375 122.375 -20.453125 C 130.644531 -22.867188 139.046875 -24.59375 147.578125 -25.625 C 147.859375 -25.625 148.140625 -25.65625 148.421875 -25.71875 C 150.359375 -26.0625 152.253906 -26.0625 154.109375 -25.71875 C 154.578125 -25.59375 154.984375 -25.375 155.328125 -25.0625 C 155.671875 -24.75 155.84375 -24.273438 155.84375 -23.640625 C 155.84375 -23.015625 155.65625 -22.546875 155.28125 -22.234375 C 154.90625 -21.921875 154.484375 -21.765625 154.015625 -21.765625 C 151.035156 -21.703125 148.132812 -21.394531 145.3125 -20.84375 C 142.488281 -20.300781 139.703125 -19.6875 136.953125 -19 C 134.722656 -18.425781 132.539062 -17.9375 130.40625 -17.53125 C 130.125 -17.46875 129.859375 -17.40625 129.609375 -17.34375 C 128.578125 -17.1875 127.554688 -16.9375 126.546875 -16.59375 C 125.546875 -16.25 124.671875 -15.734375 123.921875 -15.046875 C 124.453125 -13.660156 125.207031 -12.53125 126.1875 -11.65625 C 126.59375 -11.15625 127 -10.640625 127.40625 -10.109375 C 129.125 -7.816406 130.625 -5.445312 131.90625 -3 C 133.195312 -0.5625 134.15625 2.035156 134.78125 4.796875 C 136.289062 11.910156 133.972656 17.394531 127.828125 21.25 C 125.753906 22.46875 123.59375 23.503906 121.34375 24.359375 C 113.3125 27.234375 105.066406 28.4375 96.609375 27.96875 C 93.285156 27.75 90.179688 26.921875 87.296875 25.484375 C 83.347656 23.410156 80.753906 20.507812 79.515625 16.78125 C 78.285156 13.050781 78.640625 9.195312 80.578125 5.21875 C 81.890625 2.644531 83.613281 0.4375 85.75 -1.40625 C 88.445312 -3.820312 91.320312 -5.976562 94.375 -7.875 C 97.4375 -9.769531 100.59375 -11.515625 103.84375 -13.109375 C 105.226562 -13.804688 106.578125 -14.5 107.890625 -15.1875 C 108.578125 -15.53125 109.269531 -15.875 109.96875 -16.21875 C 110.03125 -16.96875 109.898438 -17.546875 109.578125 -17.953125 C 109.265625 -18.359375 108.90625 -18.707031 108.5 -19 C 108.34375 -19.0625 108.203125 -19.171875 108.078125 -19.328125 C 102.503906 -23.585938 96.675781 -27.472656 90.59375 -30.984375 C 83.226562 -35.335938 75.816406 -39.644531 68.359375 -43.90625 C 65.253906 -45.695312 62.148438 -47.53125 59.046875 -49.40625 C 48.296875 -55.613281 37.953125 -62.429688 28.015625 -69.859375 C 21.878906 -74.429688 16.332031 -79.601562 11.375 -85.375 C 8.957031 -88.351562 6.921875 -91.566406 5.265625 -95.015625 C 1.753906 -102.378906 1.410156 -109.960938 4.234375 -117.765625 C 5.671875 -121.773438 7.597656 -125.476562 10.015625 -128.875 C 12.429688 -132.28125 15.09375 -135.503906 18 -138.546875 C 24.488281 -145.253906 31.648438 -150.972656 39.484375 -155.703125 C 52.523438 -163.722656 66.285156 -170.148438 80.765625 -174.984375 C 98.847656 -181.023438 117.320312 -185.332031 136.1875 -187.90625 C 142.738281 -188.78125 149.3125 -189.300781 155.90625 -189.46875 C 162.507812 -189.644531 169.085938 -189.21875 175.640625 -188.1875 C 179.554688 -187.65625 183.351562 -186.832031 187.03125 -185.71875 C 190.71875 -184.601562 194.253906 -183.015625 197.640625 -180.953125 C 199.710938 -179.628906 201.640625 -178.1875 203.421875 -176.625 Z M 117.0625 -10.90625 C 115.96875 -12.03125 114.695312 -12.203125 113.25 -11.421875 C 109.582031 -9.796875 106.046875 -7.960938 102.640625 -5.921875 C 99.242188 -3.890625 95.992188 -1.585938 92.890625 0.984375 C 91.234375 2.429688 89.859375 4.109375 88.765625 6.015625 C 86.691406 9.960938 86.460938 13.617188 88.078125 16.984375 C 89.691406 20.359375 92.675781 22.4375 97.03125 23.21875 C 98.0625 23.34375 98.988281 23.4375 99.8125 23.5 C 100.09375 23.5 100.328125 23.5 100.515625 23.5 C 107.160156 23.3125 113.191406 21.96875 118.609375 19.46875 C 125.378906 16.582031 127.84375 11.582031 126 4.46875 C 125.207031 1.519531 124.035156 -1.210938 122.484375 -3.734375 C 120.929688 -6.253906 119.125 -8.644531 117.0625 -10.90625 Z M 117.0625 -10.90625 "/></g></g></g></g></g></svg>